<svg id="Layer_1" data-name="Layer 1" xmlns="http://www.w3.org/2000/svg" viewBox="0 0 100 100"><defs><style>.cls-1{fill:#b7b7b7;}</style></defs><path class="cls-1" d="M50,100a50,50,0,1,1,50-50A50.06,50.06,0,0,1,50,100ZM50,8.57A41.43,41.43,0,1,0,91.43,50,41.48,41.48,0,0,0,50,8.57Z"/><path class="cls-1" d="M57.14,75H49.29A4.29,4.29,0,0,1,45,70.71V46.43H43.57a4.29,4.29,0,0,1,0-8.57h5.72a4.28,4.28,0,0,1,4.28,4.28V66.43h3.57a4.29,4.29,0,1,1,0,8.57Z"/><circle class="cls-1" cx="48.57" cy="27.14" r="5.71"/></svg>