<svg id="Layer_1" data-name="Layer 1" xmlns="http://www.w3.org/2000/svg" viewBox="0 0 111 100"><defs><style>.cls-1{fill:#b7b7b7;}</style></defs><path class="cls-1" d="M105.08,33H6.15C4.5,16.87,19,.92,36.47.17,49.16-.38,61.92-.42,74.6.19,91.77,1,105.12,15.64,105.08,33Z"/><path class="cls-1" d="M5.37,72.43h101.2c-1.43,7.09-1.77,14-4.34,20S93.43,100,87,100c-20.35-.08-40.7,0-61,0C11.44,100,5.37,93.8,5.37,79.26Z"/><path class="cls-1" d="M88.32,50c11-7.13,13.76-7.07,22.37.3L105,58.35l-.73-1.66c-2.89.67-6.21.66-8.6,2.14-6.91,4.28-12.31,1.14-18-3.12-7,6.26-14.29,7.44-21.89-.32C48.54,62,41,63.18,32.92,56.6l1.65,4.87c-8-1.69-14.93-3.29-21.9-4.5-2-.35-4.17.45-7,.83l-5.2-7c6.62-7.92,10.25-8.15,22-1.19,6.72-6.28,14-7.18,21.59.46,7.18-6.66,14.67-7.8,22.34,0C73.68,43.26,81.18,42.25,88.32,50Z"/></svg>