<svg xmlns="http://www.w3.org/2000/svg" viewBox="0 0 98 98"><defs><style>.cls-1{fill:#fff;}.cls-2{fill:#ffbb58;}</style></defs><g id="Layer_14" data-name="Layer 14"><path class="cls-1" d="M10,80.67a3.77,3.77,0,0,0,2.47,2.47H10Z"/><path class="cls-2" d="M0,94.94V93.41s.11-.08.13-.14q3-9.45,6.06-18.9A2.12,2.12,0,0,0,6,72.5,46.5,46.5,0,0,1,.7,57.07c-.26-1.66-.47-3.33-.7-5V46.14a6.07,6.07,0,0,0,.16-.83A45.49,45.49,0,0,1,5.76,26C14.78,10,28.56,1.24,47,.09A44.36,44.36,0,0,1,69.68,4.63c17.46,8.68,27,22.85,28.23,42.31a45.15,45.15,0,0,1-5.74,25.21C84.54,85.91,72.94,94.32,57.44,97.24c-1.84.35-3.71.51-5.57.76H45.94c-1.17-.14-2.34-.27-3.5-.44a50,50,0,0,1-17.13-5.65,2.18,2.18,0,0,0-1.49-.13c-2.35.7-4.68,1.47-7,2.23L4.59,98H3.06A4.66,4.66,0,0,1,0,94.94Zm9.77-6.71c4.15-1.33,8.14-2.45,12-3.91a7.77,7.77,0,0,1,7.19.76,39.78,39.78,0,0,0,28.45,4.37,40.1,40.1,0,0,0,25-16.22,39.91,39.91,0,0,0,7-32.72,40,40,0,0,0-16-24.73A39.81,39.81,0,0,0,42.94,8.15,40,40,0,0,0,15.83,24.47C8.5,34.33,6.22,45.39,8.54,57.41a38.72,38.72,0,0,0,5.11,13,4.69,4.69,0,0,1,.46,4.37c-.45,1.22-.82,2.48-1.22,3.72C11.87,81.68,10.85,84.85,9.77,88.23Z"/><path class="cls-2" d="M25.08,48.93a4.78,4.78,0,1,1,4.65,4.85A4.83,4.83,0,0,1,25.08,48.93Z"/><path class="cls-2" d="M53.78,49A4.78,4.78,0,1,1,49,44.23,4.83,4.83,0,0,1,53.78,49Z"/><path class="cls-2" d="M68,53.78a4.78,4.78,0,1,1,4.9-4.6A4.81,4.81,0,0,1,68,53.78Z"/></g></svg>