<svg id="Layer_1" data-name="Layer 1" xmlns="http://www.w3.org/2000/svg" viewBox="0 0 117 100"><defs><style>.cls-1{fill:#1e1a34;}</style></defs><path class="cls-1" d="M28.76,12.44a17,17,0,0,1,12.05,5l6.32,6.37a15.74,15.74,0,0,0,22.3.14l.09-.08,6.3-6.3A17.08,17.08,0,1,1,100,41.71L58.34,83.21,16.69,41.58A17.07,17.07,0,0,1,28.76,12.44m0-12A29.07,29.07,0,0,0,8.2,50.07l50.12,50.1,50.13-50A28.8,28.8,0,0,0,117,29.62,29.09,29.09,0,0,0,67.33,9.07L61,15.37l0,0a3.71,3.71,0,0,1-2.64,1.09,3.79,3.79,0,0,1-2.68-1.12L49.32,9A29,29,0,0,0,28.76.44Z"/></svg>