<svg id="Layer_1" data-name="Layer 1" xmlns="http://www.w3.org/2000/svg" viewBox="0 0 105 100"><defs><style>.cls-1{fill:#b7b7b7;}</style></defs><rect class="cls-1" x="1" y="40" width="104" height="14.67" rx="2.46"/><path class="cls-1" d="M5,53.33l6.79,39.6A8.51,8.51,0,0,0,20.17,100h68a7.14,7.14,0,0,0,7.08-6.15L101,53.33ZM41,84a4,4,0,0,1-8,0V60a4,4,0,1,1,8,0Zm16,0a4,4,0,0,1-8,0V60a4,4,0,1,1,8,0Zm16,0a4,4,0,0,1-8,0V60a4,4,0,1,1,8,0Z"/><path class="cls-1" d="M13,32l5.33-9.33S21,16,27.67,21.33A146.94,146.94,0,0,0,43.67,32Z"/><path class="cls-1" d="M34.33,16s4-2.67,8-2.67A16.14,16.14,0,0,1,49,14.67l-4,8Z"/><path class="cls-1" d="M53,32S54.33,17.33,63.67,8H78.33S87.67,20,89,32H53"/><rect class="cls-1" x="61" width="20" height="8" rx="3"/></svg>