<svg id="Layer_1" data-name="Layer 1" xmlns="http://www.w3.org/2000/svg" viewBox="0 0 101 100"><defs><style>.cls-1{fill:#fff;}</style></defs><path class="cls-1" d="M63.85,100H18.35A18.37,18.37,0,0,1,0,81.65V18.35A18.37,18.37,0,0,1,18.35,0h45.5A18.38,18.38,0,0,1,80,9.54a6.17,6.17,0,0,1-10.82,5.93,6,6,0,0,0-5.28-3.14H18.35a6,6,0,0,0-6,6v63.3a6,6,0,0,0,6,6h45.5a6,6,0,0,0,5.46-3.49A6.17,6.17,0,0,1,80.5,89.36,18.42,18.42,0,0,1,63.85,100Z"/><path class="cls-1" d="M93.15,55.48h-63a6.17,6.17,0,1,1,0-12.33h63a6.17,6.17,0,1,1,0,12.33Z"/><path class="cls-1" d="M74.66,74.85A6.16,6.16,0,0,1,70.3,64.33l15-15-15-15A6.17,6.17,0,0,1,79,25.58L98.39,45a6.15,6.15,0,0,1,0,8.71L79,73.05A6.18,6.18,0,0,1,74.66,74.85Z"/></svg>