<svg id="Layer_1" data-name="Layer 1" xmlns="http://www.w3.org/2000/svg" viewBox="0 0 100 100"><defs><style>.cls-1{fill:#b7b7b7;}</style></defs><path class="cls-1" d="M53,100H47c-1.19-.15-2.38-.28-3.56-.45A50.92,50.92,0,0,1,26,93.78a2.26,2.26,0,0,0-1.52-.13c-2.39.71-4.76,1.5-7.13,2.27L4.87,100H3.31A11.9,11.9,0,0,1,2,99.36C.38,98.29-.14,96.59.53,94.47q3-9.28,6-18.54a2.3,2.3,0,0,0-.17-2A47.92,47.92,0,0,1,.63,56.53,48.45,48.45,0,0,1,6.15,26.35C13.9,12.31,25.73,3.76,41.5.77,43.37.42,45.28.25,47.17,0H53a6.69,6.69,0,0,0,.75.16A47,47,0,0,1,73.53,5.87c14.06,7.78,22.66,19.6,25.68,35.43.37,1.9.53,3.85.79,5.77v5.86a6.25,6.25,0,0,0-.17.84,47.14,47.14,0,0,1-5.68,19.7C86.39,87.56,74.59,96.18,58.79,99.21,56.89,99.58,55,99.74,53,100ZM10.15,90c4.2-1.35,8.24-2.49,12.15-4a8,8,0,0,1,7.41.76,40.43,40.43,0,0,0,29,4.45,40.88,40.88,0,0,0,25.5-16.64A40.78,40.78,0,0,0,91.28,41.4,40.8,40.8,0,0,0,74.92,16a40.48,40.48,0,0,0-31-7.72A40.67,40.67,0,0,0,16.31,25c-7.48,10.1-9.8,21.41-7.39,33.71a38.55,38.55,0,0,0,5,12.83,5.33,5.33,0,0,1,.56,5.08c-.61,1.54-1,3.15-1.54,4.73C12,84.16,11.12,87,10.15,90Z"/><path class="cls-1" d="M30.63,45.12a4.88,4.88,0,1,1-4.89,4.8A4.92,4.92,0,0,1,30.63,45.12Z"/><path class="cls-1" d="M55,50a4.87,4.87,0,1,1-4.83-4.86A4.92,4.92,0,0,1,55,50Z"/><path class="cls-1" d="M74.46,50a4.87,4.87,0,1,1-4.85-4.85A4.93,4.93,0,0,1,74.46,50Z"/></svg>