<svg id="Layer_1" data-name="Layer 1" xmlns="http://www.w3.org/2000/svg" viewBox="0 0 92 100"><defs><style>.cls-1{fill:#1e1a34;stroke:#1e1a34;stroke-miterlimit:10;stroke-width:2px;}</style></defs><path class="cls-1" d="M46.36,2.54a36,36,0,0,0-8.18.94C21.53,7.34,9.82,22.07,9.71,39.85c-.07,10.13.21,20-5.53,29.26-4.58,7.4-.29,13.6,8.53,13.76,2.32,0,4.65,0,7,0,3.74,0,7.47,0,11.16,0,3.51,10.27,7.87,14.42,15.1,14.58h.39c7.16,0,11.74-4.31,15.2-14.27a2.46,2.46,0,0,1,.58-.19c5.68,0,11.36-.05,17-.13,9.61-.13,13.55-6,8.87-14.36a40,40,0,0,1-5.24-23.83,54.84,54.84,0,0,0-.05-7.9A36.57,36.57,0,0,0,46.36,2.54ZM10.15,75c-.06-.57-.28-1.09-.11-1.33,7.25-10.69,7.2-22.71,7.09-35a29,29,0,0,1,19.2-27.11,31.85,31.85,0,0,1,10.53-1.9c7.45,0,14.24,3,20.28,8.94a27.82,27.82,0,0,1,8.31,19.07,42.38,42.38,0,0,1,0,7.3c-1.32,10.71,1.61,20.36,8.42,30ZM45.74,89.77h0c-2.48,0-4.93-3.17-7.39-4.93l1.06-1.66H53c.37.75.73,1.5,1.1,2.26-2.8,1.56-5.6,4.33-8.38,4.33Z"/></svg>