<svg id="Layer_1" data-name="Layer 1" xmlns="http://www.w3.org/2000/svg" viewBox="0 0 131 100"><defs><style>.cls-1{fill:#b7b7b7;}</style></defs><path class="cls-1" d="M19.64,30.36h91.07a0,0,0,0,1,0,0V91.93a8.07,8.07,0,0,1-8.07,8.07H27.72a8.07,8.07,0,0,1-8.07-8.07V30.36A0,0,0,0,1,19.64,30.36Z"/><path class="cls-1" d="M119.64,15.07v1H10.71v-1a4.36,4.36,0,0,1,4.36-4.36H115.29A4.35,4.35,0,0,1,119.64,15.07Z"/><path class="cls-1" d="M125,33.93H5.36a5.36,5.36,0,0,1,0-10.72H125a5.36,5.36,0,1,1,0,10.72Z"/><path class="cls-1" d="M76.79,10.71H53.57C53.57,4.8,58.77,0,65.18,0S76.79,4.8,76.79,10.71Z"/></svg>