<svg id="Layer_1" data-name="Layer 1" xmlns="http://www.w3.org/2000/svg" viewBox="0 0 80 100"><defs><style>.cls-1{fill:#fff;}</style></defs><path class="cls-1" d="M80,50.63c0,12.28,0,24.56,0,36.85,0,8.94-3.56,12.46-12.5,12.48q-27.48.08-55,0C3.56,99.94.05,96.42,0,87.46Q0,50,0,12.51C.05,3.56,3.56.06,12.52,0Q40,0,67.48,0c9,0,12.45,3.53,12.49,12.49C80,25.23,80,37.93,80,50.63ZM40.22,34.51H59.65V25.39H40.22Zm.07,20.15h19.3V45.45H40.29Zm0,19.93H59.52v-9.3H40.29ZM20.12,34.5h9.47v-9H20.12ZM29.5,54.88V45.42h-9v9.46Zm.13,20V65.43H20.5v9.45Z"/></svg>