<svg id="Layer_1" data-name="Layer 1" xmlns="http://www.w3.org/2000/svg" viewBox="0 0 102 100"><defs><style>.cls-1{fill:#b7b7b7;}</style></defs><path class="cls-1" d="M90.41,85.58H11.5a11,11,0,0,1-11-11V11a11,11,0,0,1,11-11H90.41a11,11,0,0,1,11,11V32.28a2.89,2.89,0,1,1-5.77,0V11a5.27,5.27,0,0,0-5.26-5.26H11.5A5.26,5.26,0,0,0,6.25,11V74.55a5.26,5.26,0,0,0,5.25,5.26H90.41a2.89,2.89,0,0,1,0,5.77Z"/><path class="cls-1" d="M98.55,65.77a2.88,2.88,0,0,1-2.88-2.88V50a2.89,2.89,0,1,1,5.77,0V62.89A2.88,2.88,0,0,1,98.55,65.77Z"/><path class="cls-1" d="M49.51,53.85c-14.38,0-34.56-23.36-36.81-26a2.88,2.88,0,1,1,4.4-3.72c5.65,6.67,22.48,24,32.41,24S77.75,30.7,83.93,24a2.89,2.89,0,0,1,4.24,3.92C85.72,30.57,63.82,53.85,49.51,53.85Z"/><path class="cls-1" d="M76.44,100a2.89,2.89,0,0,1-2-4.92L87.74,81.73,74.4,68.39a2.88,2.88,0,1,1,4.08-4.08L93.86,79.69a2.88,2.88,0,0,1,0,4.08L78.48,99.15A2.86,2.86,0,0,1,76.44,100Z"/></svg>