<svg xmlns="http://www.w3.org/2000/svg" viewBox="0 0 1727 901"><defs><style>.cls-1{fill:#ffbb58;}.cls-2{fill:#a56314;}.cls-3{opacity:0.2;isolation:isolate;}.cls-4{fill:#fff;}.cls-5{fill:#ff6584;}.cls-6{fill:#f9a825;}.cls-7{fill:#00bf71;}</style></defs><g id="Layer_2" data-name="Layer 2"><path class="cls-1" d="M227,469.68H174.23a7,7,0,0,0-7,7v23.14a7,7,0,0,0,7,7H183v34.68h35.25V506.81H227a7,7,0,0,0,7-7V476.68A7,7,0,0,0,227,469.68Z"/><path class="cls-2" d="M279.78,681.52a271.17,271.17,0,0,1-47.16-160.74,5.73,5.73,0,0,0-4.47-5.71v-10H172.46v9.87h-.77a5.7,5.7,0,0,0-5.7,5.72c0,.14,0,.28,0,.41q6.58,91.76-44.45,164.55a15.85,15.85,0,0,0-2.85,9.54l6.09,188.38A16.32,16.32,0,0,0,141,899.28h126a16.33,16.33,0,0,0,16.18-16l2.34-182.9A33,33,0,0,0,279.78,681.52Z"/><path class="cls-3" d="M216,477.23a15.09,15.09,0,0,1-30.17,0"/><path class="cls-1" d="M259.84,744.09H244.59a40,40,0,0,0-79.14,0H150.19a11.26,11.26,0,0,0-11.25,11.26,10.94,10.94,0,0,0,.13,1.71l16.57,107.7h95.14L270.9,757.42a11.25,11.25,0,0,0-9-13.14A11,11,0,0,0,259.84,744.09Z"/><polygon class="cls-4" points="1541.71 570.98 1538.05 717.22 1533.52 898.57 1379.27 898.57 1373.96 686.1 1371.08 570.98 1541.71 570.98"/><rect class="cls-1" x="1444.79" y="493.17" width="21.84" height="289.38"/><path class="cls-2" d="M1530.79,681.17,1526.65,889H1386.06l-4.84-243.53A95.81,95.81,0,0,1,1457,655.92C1480.47,669.81,1506.86,677.29,1530.79,681.17Z"/><rect class="cls-4" x="1400.83" y="704.57" width="20.04" height="20.04"/><rect class="cls-4" x="1414.48" y="663.62" width="20.04" height="20.04"/><rect class="cls-4" x="1453.51" y="684.03" width="20.04" height="20.04" transform="translate(34.24 1456.12) rotate(-53.44)"/><rect class="cls-4" x="1489.72" y="719.54" width="20.04" height="20.04" transform="translate(20.36 1499.56) rotate(-53.44)"/><rect class="cls-4" x="1428.3" y="740.01" width="20.04" height="20.04" transform="translate(-20.92 1458.5) rotate(-53.44)"/><circle class="cls-2" cx="1499.39" cy="651.51" r="4.09"/><circle class="cls-2" cx="1416.13" cy="624.21" r="4.09"/><circle class="cls-2" cx="1485.74" cy="595.55" r="4.09"/><circle class="cls-1" cx="830.2" cy="448.73" r="448.59"/><path class="cls-3" d="M830.2,776.16c-180.83,0-327.42-146.59-327.42-327.43S649.37,121.31,830.2,121.31s327.43,146.6,327.43,327.43A327.42,327.42,0,0,1,830.2,776.16Zm0-634.66C660.79,141.5,523,279.32,523,448.73S660.79,756,830.2,756s307.23-137.83,307.23-307.24S999.61,141.5,830.2,141.5Z"/><circle class="cls-2" cx="830.2" cy="448.73" r="317.33"/><path class="cls-5" d="M594.21,321.85a40.27,40.27,0,1,1,71.73-36.63l0,.07,89.66,176.06A40.27,40.27,0,0,1,683.92,498l-.06-.11Z"/><path class="cls-3" d="M604.21,341.48l-4.14-8.12c20.65-16.05,44.9-27.85,71.78-36.55l4.13,8.12C646.9,311,622.15,322.2,604.21,341.48Z"/><path class="cls-3" d="M623.52,379.4l-4.14-8.12c20.65-16,44.9-27.85,71.78-36.55l4.13,8.12C666.21,348.91,641.46,360.12,623.52,379.4Z"/><path class="cls-3" d="M642.83,417.32l-4.14-8.12c20.65-16.05,44.9-27.85,71.78-36.56l4.13,8.13C685.52,386.83,660.77,398,642.83,417.32Z"/><path class="cls-3" d="M662.14,455.24,658,447.11c20.65-16,44.9-27.84,71.78-36.55l4.13,8.13C704.83,424.75,680.08,436,662.14,455.24Z"/><path class="cls-3" d="M681.45,493.16,677.31,485c20.65-16,44.9-27.84,71.78-36.55l4.13,8.13C724.14,462.66,699.39,473.87,681.45,493.16Z"/><path class="cls-5" d="M527,387.75a40.27,40.27,0,0,1,71.74-36.6l0,.05,89.66,176.06a40.27,40.27,0,0,1-71.78,36.55Z"/><path class="cls-3" d="M537,407.39l-4.14-8.12c20.65-16,44.9-27.85,71.77-36.56l4.14,8.13C579.64,376.9,554.89,388.11,537,407.39Z"/><path class="cls-3" d="M556.26,445.31l-4.14-8.13c20.65-16,44.9-27.84,71.77-36.55l4.14,8.13C599,414.82,574.2,426,556.26,445.31Z"/><path class="cls-3" d="M575.57,483.23l-4.14-8.13c20.65-16,44.9-27.84,71.77-36.55l4.14,8.13C618.26,452.73,593.51,463.94,575.57,483.23Z"/><path class="cls-3" d="M594.88,521.15,590.74,513c20.65-16,44.9-27.84,71.77-36.55l4.14,8.13C637.57,490.65,612.82,501.86,594.88,521.15Z"/><path class="cls-3" d="M614.19,559.07l-4.14-8.13c20.65-16,44.9-27.84,71.77-36.55l4.14,8.13C656.88,528.57,632.13,539.78,614.19,559.07Z"/><path class="cls-4" d="M1042.24,458.83h.28a48,48,0,0,0,45-30.13,157,157,0,0,0,11-58.81c-.51-85.19-69.81-155.08-155-156.25A157.25,157.25,0,0,0,878,514.83a47.62,47.62,0,0,0,52.9-9.81A156.76,156.76,0,0,1,1042.24,458.83Z"/><circle class="cls-6" cx="961.46" cy="359.3" r="51.93"/><circle class="cls-2" cx="848.6" cy="347.35" r="6.12"/><circle class="cls-2" cx="646.67" cy="353.12" r="6.12"/><circle class="cls-2" cx="881.21" cy="283.95" r="6.12"/><circle class="cls-2" cx="881.03" cy="460.27" r="6.12"/><circle class="cls-2" cx="1002.2" cy="271.32" r="6.12"/><circle class="cls-2" cx="606.97" cy="438.64" r="6.12"/><circle class="cls-2" cx="651.69" cy="526.62" r="6.12"/><circle class="cls-5" cx="932.61" cy="538.16" r="23.08"/><path class="cls-3" d="M949.92,539.61a17.31,17.31,0,0,1-34.62,0"/><path class="cls-3" d="M915.3,536.72a17.31,17.31,0,0,1,34.62,0"/><ellipse class="cls-5" cx="923.96" cy="530.23" rx="1.44" ry="2.16"/><ellipse class="cls-5" cx="932.61" cy="527.35" rx="1.44" ry="2.16"/><ellipse class="cls-5" cx="932.61" cy="546.1" rx="1.44" ry="2.16"/><ellipse class="cls-5" cx="941.27" cy="534.56" rx="1.44" ry="2.16"/><ellipse class="cls-5" cx="939.82" cy="550.42" rx="1.44" ry="2.16"/><ellipse class="cls-5" cx="922.51" cy="543.21" rx="1.44" ry="2.16"/><circle class="cls-5" cx="978.77" cy="476.14" r="23.08"/><path class="cls-3" d="M996.08,477.58a17.31,17.31,0,0,1-34.62,0"/><path class="cls-3" d="M961.46,474.7a17.31,17.31,0,0,1,34.62,0"/><ellipse class="cls-5" cx="970.11" cy="468.21" rx="1.44" ry="2.16"/><ellipse class="cls-5" cx="978.77" cy="465.32" rx="1.44" ry="2.16"/><ellipse class="cls-5" cx="978.77" cy="484.07" rx="1.44" ry="2.16"/><ellipse class="cls-5" cx="987.42" cy="472.53" rx="1.44" ry="2.16"/><ellipse class="cls-5" cx="985.98" cy="488.4" rx="1.44" ry="2.16"/><ellipse class="cls-5" cx="968.67" cy="481.19" rx="1.44" ry="2.16"/><circle class="cls-1" cx="1024.93" cy="507.87" r="23.08"/><path class="cls-3" d="M1042.24,509.31a17.31,17.31,0,0,1-34.62,0"/><path class="cls-3" d="M1007.62,506.43a17.31,17.31,0,0,1,34.62,0"/><ellipse class="cls-1" cx="1016.27" cy="499.94" rx="1.44" ry="2.16"/><ellipse class="cls-1" cx="1024.93" cy="497.05" rx="1.44" ry="2.16"/><ellipse class="cls-1" cx="1024.93" cy="515.81" rx="1.44" ry="2.16"/><ellipse class="cls-1" cx="1033.58" cy="504.27" rx="1.44" ry="2.16"/><ellipse class="cls-1" cx="1032.14" cy="520.13" rx="1.44" ry="2.16"/><ellipse class="cls-1" cx="1014.83" cy="512.92" rx="1.44" ry="2.16"/><circle class="cls-1" cx="909.53" cy="510.76" r="23.08"/><path class="cls-3" d="M926.84,512.2a17.31,17.31,0,0,1-34.62,0"/><path class="cls-3" d="M892.22,509.31a17.31,17.31,0,0,1,34.62,0"/><ellipse class="cls-1" cx="900.88" cy="502.82" rx="1.44" ry="2.16"/><ellipse class="cls-1" cx="909.53" cy="499.94" rx="1.44" ry="2.16"/><ellipse class="cls-1" cx="909.53" cy="518.69" rx="1.44" ry="2.16"/><ellipse class="cls-1" cx="918.19" cy="507.15" rx="1.44" ry="2.16"/><ellipse class="cls-1" cx="916.75" cy="523.02" rx="1.44" ry="2.16"/><ellipse class="cls-1" cx="899.44" cy="515.81" rx="1.44" ry="2.16"/><circle class="cls-1" cx="961.46" cy="520.85" r="23.08"/><path class="cls-3" d="M978.77,522.3a17.31,17.31,0,0,1-34.62,0v0"/><path class="cls-3" d="M944.15,519.41a17.31,17.31,0,0,1,34.62,0v0"/><ellipse class="cls-1" cx="952.81" cy="512.92" rx="1.44" ry="2.16"/><ellipse class="cls-1" cx="961.46" cy="510.04" rx="1.44" ry="2.16"/><ellipse class="cls-1" cx="961.46" cy="528.79" rx="1.44" ry="2.16"/><ellipse class="cls-1" cx="970.11" cy="517.25" rx="1.44" ry="2.16"/><ellipse class="cls-1" cx="968.67" cy="533.11" rx="1.44" ry="2.16"/><ellipse class="cls-1" cx="951.36" cy="525.9" rx="1.44" ry="2.16"/><circle class="cls-5" cx="997.52" cy="545.38" r="23.08"/><path class="cls-3" d="M1014.83,546.82a17.31,17.31,0,0,1-34.62,0"/><path class="cls-3" d="M980.21,543.93a17.31,17.31,0,0,1,34.62,0h0"/><ellipse class="cls-5" cx="988.87" cy="537.44" rx="1.44" ry="2.16"/><ellipse class="cls-5" cx="997.52" cy="534.56" rx="1.44" ry="2.16"/><ellipse class="cls-5" cx="997.52" cy="553.31" rx="1.44" ry="2.16"/><ellipse class="cls-5" cx="1006.17" cy="541.77" rx="1.44" ry="2.16"/><ellipse class="cls-5" cx="1004.73" cy="557.64" rx="1.44" ry="2.16"/><ellipse class="cls-5" cx="987.42" cy="550.42" rx="1.44" ry="2.16"/><circle class="cls-2" cx="700.73" cy="457.39" r="6.12"/><polygon class="cls-6" points="867.01 679.43 720.1 638.69 725.72 617.78 872.64 658.53 867.01 679.43"/><path class="cls-6" d="M845.47,672.44a405.05,405.05,0,0,1-152.3,0V650.77a465.56,465.56,0,0,0,152.3,0Z"/><path class="cls-6" d="M861.13,607.43a405.05,405.05,0,0,1-152.3,0V585.76a465.56,465.56,0,0,0,152.3,0Z"/><path class="cls-6" d="M913.79,633.44a405.05,405.05,0,0,1-152.3,0V611.77a466.11,466.11,0,0,0,152.3,0Z"/><path class="cls-6" d="M926.6,658a405.05,405.05,0,0,1-152.3,0V636.33a466.11,466.11,0,0,0,152.3,0Z"/><polygon class="cls-6" points="971.27 690.09 821.01 715.33 817.52 693.95 967.78 668.71 971.27 690.09"/><path class="cls-6" d="M948.82,692.87a408.38,408.38,0,0,1-138.39,64.54l-8.91-19.69a469.41,469.41,0,0,0,138.39-64.55Z"/><path class="cls-6" d="M936.3,627.16A408,408,0,0,1,797.91,691.7L789,672a469.39,469.39,0,0,0,138.39-64.54Z"/><path class="cls-6" d="M994.85,628.47A408.06,408.06,0,0,1,856.47,693l-8.92-19.69a469.39,469.39,0,0,0,138.39-64.54Z"/><path class="cls-6" d="M1016.6,645.35A408.22,408.22,0,0,1,878.21,709.9l-8.91-19.69a469.24,469.24,0,0,0,138.38-64.55Z"/><rect class="cls-7" x="827.32" y="603.07" width="7.21" height="7.21"/><rect class="cls-7" x="848.95" y="728.56" width="7.21" height="7.21"/><rect class="cls-7" x="733.56" y="603.07" width="7.21" height="7.21"/><rect class="cls-7" x="900.88" y="692.5" width="7.21" height="7.21"/><rect class="cls-7" x="905.21" y="650.67" width="7.21" height="7.21"/><rect class="cls-7" x="784.76" y="625.43" width="5.77" height="10.1" transform="matrix(0.56, -0.83, 0.83, 0.56, -176.3, 928.29)"/><rect class="cls-7" x="869.87" y="641.3" width="5.77" height="10.1" transform="matrix(0.56, -0.83, 0.83, 0.56, -152.11, 1005.67)"/><rect class="cls-7" x="766.01" y="668.7" width="5.77" height="10.1" transform="translate(-220.33 931.75) rotate(-55.84)"/><rect class="cls-7" x="822.99" y="665.1" width="10.1" height="5.77" transform="translate(-189.62 978.16) rotate(-55.84)"/><rect class="cls-7" x="861.93" y="675.19" width="10.1" height="5.77" transform="translate(-180.9 1014.82) rotate(-55.84)"/><rect class="cls-7" x="965.8" y="640.57" width="10.1" height="5.77" transform="translate(-106.7 1085.58) rotate(-55.84)"/><rect class="cls-2" x="5.39" y="896.84" width="1647.74" height="4.16"/></g></svg>