<svg xmlns="http://www.w3.org/2000/svg" viewBox="0 0 987 901"><defs><style>.cls-1{fill:#a56314;}.cls-2{fill:#a0616a;}.cls-3{fill:#2f2e41;}.cls-4{fill:#ffbb58;}.cls-5{fill:#fff;}.cls-6{fill:#e6e6e6;}.cls-7{opacity:0.2;isolation:isolate;}.cls-8{fill:#f9a825;}</style></defs><g id="Layer_4" data-name="Layer 4"><rect class="cls-1" x="328.61" y="896.26" width="642.39" height="2.77"/><path class="cls-2" d="M851.12,425.11a13.64,13.64,0,0,1-1.55,19.21,13.19,13.19,0,0,1-1.12.85L782,490.82,752.7,510.33a8,8,0,0,1-10.7-1.6h0a8,8,0,0,1,1.13-11.32,8.32,8.32,0,0,1,1.06-.73l28.35-16.47L822,433.08l-31.81-34.16,23.56-17.68Z"/><polygon class="cls-2" points="694.78 854.89 678.52 854.89 668.86 720.57 710.1 719.39 694.78 854.89"/><path class="cls-3" d="M696,898.48c-4.34,2-8-14.05-11.63-10.46-10.23,10.05-25.89,12.24-39.55,7.85l4.78,0a6.4,6.4,0,0,1-4.13-8.05c0-.09.06-.19.1-.28h0a6.4,6.4,0,0,1,4.44-4l10.88-2.72,17.08-30,17.44-1.18h0a41.68,41.68,0,0,1,7.71,35.55C701.49,891.59,699.05,897.07,696,898.48Z"/><polygon class="cls-2" points="803.06 854.89 786.8 854.89 777.14 720.57 819.56 712.32 803.06 854.89"/><path class="cls-3" d="M804.24,898.48c-4.34,2-8-14.05-11.63-10.46-10.23,10.05-25.89,12.24-39.55,7.85l4.78,0a6.4,6.4,0,0,1-4.13-8.05c0-.09.06-.19.1-.28h0a6.41,6.41,0,0,1,4.43-4l10.89-2.72,17.08-30,18.62-2.35.47.77a48,48,0,0,1,5.14,39.25C808.89,893.39,806.79,897.32,804.24,898.48Z"/><path class="cls-4" d="M821.5,384.28c-15,2.08-25.31,10.27-29.52,26.61l-27.49-50.75a15,15,0,0,1,4.78-19.09h0a15,15,0,0,1,20.42,3Z"/><path class="cls-3" d="M850.31,706.43c-66.84,29.57-135.24,33.21-205,14.14C670.77,621.75,700.86,532.4,700.67,459l68.34-5.9,10.52,16.68a370,370,0,0,1,50.78,129.53Z"/><circle class="cls-2" cx="738.38" cy="271.67" r="35.35"/><polygon class="cls-2" points="777.26 334.11 733.66 336.47 726.59 297.59 761.94 291.7 777.26 334.11"/><path class="cls-4" d="M772.54,459l-47.76,1.34-24.11,3.37c-11.83-39.1-21.8-78.11,2.36-110.75l28.28-28.28,42.41-1.18.56.32a34.15,34.15,0,0,1,15.65,39.74C779.41,397.77,772.65,430.07,772.54,459Z"/><path class="cls-2" d="M699.49,568.58l-3,40.49a9,9,0,0,1-8.39,8.34h0a9,9,0,0,1-9.6-8.4,7.42,7.42,0,0,1,0-.82l.94-39.61,29.46-111.93,1.18-68.34,33-1.18-2.36,78.94Z"/><path class="cls-4" d="M746.62,393c-14-5.68-27-3.78-38.88,8.25l1.62-57.7a15,15,0,0,1,13.71-14.12h0a15,15,0,0,1,16.17,12.81Z"/><path class="cls-3" d="M813.19,429H704.8c25.28-67,33.44-129.25,0-182.62.57-16,21.13-29.93,37.1-28.4h0c18.86,1.82,44.2,15.68,47.73,34.29Z"/><path class="cls-1" d="M467.74,215h-4.95V79.56A78.38,78.38,0,0,0,384.4,1.17H97.45A78.39,78.39,0,0,0,19.06,79.56h0V822.61A78.39,78.39,0,0,0,97.45,901h287a78.39,78.39,0,0,0,78.39-78.39h0V311.41h4.95Z"/><path class="cls-5" d="M387.57,21.56H350.11a27.81,27.81,0,0,1-25.75,38.32H160a27.82,27.82,0,0,1-25.75-38.32h-35A58.54,58.54,0,0,0,40.69,80.1v742a58.54,58.54,0,0,0,58.54,58.55H387.57a58.54,58.54,0,0,0,58.54-58.55h0V80.1A58.54,58.54,0,0,0,387.57,21.56Z"/><rect class="cls-6" x="91.32" y="137.46" width="304.16" height="260.88"/><circle class="cls-4" cx="181.58" cy="430.49" r="22.26"/><polygon class="cls-5" points="192.71 428.64 183.43 428.64 183.43 419.36 179.72 419.36 179.72 428.64 170.45 428.64 170.45 432.35 179.72 432.35 179.72 441.62 183.43 441.62 183.43 432.35 192.71 432.35 192.71 428.64"/><circle class="cls-4" cx="299.04" cy="430.49" r="22.26"/><rect class="cls-5" x="287.91" y="428.64" width="22.26" height="3.71"/><path class="cls-4" d="M254.74,170h-24a3.18,3.18,0,0,0-3.19,3.18h0v10.55a3.19,3.19,0,0,0,3.19,3.19h4v15.81h16.07V186.92h4a3.19,3.19,0,0,0,3.19-3.19h0V173.18A3.18,3.18,0,0,0,254.74,170Z"/><path class="cls-1" d="M278.82,266.55a123.54,123.54,0,0,1-21.5-73.26,2.6,2.6,0,0,0-2-2.6v-4.56H229.9v4.49h-.35a2.61,2.61,0,0,0-2.6,2.61h0a1.15,1.15,0,0,0,0,.19q3,41.82-20.26,75a7.12,7.12,0,0,0-1.3,4.35l2.77,85.86a7.44,7.44,0,0,0,7.37,7.18H273a7.43,7.43,0,0,0,7.37-7.3l1.07-83.37A15.11,15.11,0,0,0,278.82,266.55Z"/><path class="cls-7" d="M249.73,173.44a6.88,6.88,0,0,1-13.75,0v0"/><path class="cls-4" d="M269.73,295.07h-7a18.25,18.25,0,0,0-36.08,0h-6.95a5.13,5.13,0,0,0-5.13,5.13,4.93,4.93,0,0,0,.06.78l7.55,49.09H265.6l9.17-48.92a5.13,5.13,0,0,0-4.1-6A4.91,4.91,0,0,0,269.73,295.07Z"/><rect class="cls-6" x="91.32" y="504.68" width="304.16" height="260.88"/><circle class="cls-4" cx="181.58" cy="797.7" r="22.26"/><polygon class="cls-5" points="192.71 795.85 183.43 795.85 183.43 786.58 179.72 786.58 179.72 795.85 170.45 795.85 170.45 799.56 179.72 799.56 179.72 808.83 183.43 808.83 183.43 799.56 192.71 799.56 192.71 795.85"/><circle class="cls-4" cx="299.04" cy="797.7" r="22.26"/><rect class="cls-5" x="287.91" y="795.85" width="22.26" height="3.71"/><path class="cls-5" d="M303.28,690h.16a28.49,28.49,0,0,0,26.68-17.87A93.24,93.24,0,1,0,205.9,723.22a28.24,28.24,0,0,0,31.37-5.82A93,93,0,0,1,303.28,690Z"/><circle class="cls-8" cx="255.37" cy="630.99" r="30.79"/></g></svg>