<svg xmlns="http://www.w3.org/2000/svg" viewBox="0 0 901 901"><defs><style>.cls-1{fill:#d6d6d6;}.cls-2{fill:#c6c6c6;}.cls-3{fill:#ffbb58;}.cls-4{fill:#a56314;}.cls-5{fill:#2f2e41;}.cls-6{fill:#ffb9b9;}.cls-7{fill:#fff;}</style></defs><g id="Layer_3" data-name="Layer 3"><rect class="cls-1" x="344.86" y="274.8" width="39.38" height="625.24" transform="translate(-262.44 296.15) rotate(-33.26)"/><path class="cls-1" d="M131.17,118.46l76.18,116.15a10.14,10.14,0,0,1-17,11.12h0L102.81,112.2A72.31,72.31,0,0,0,68,117.92L163.45,263.4a10.14,10.14,0,0,1-17,11.12L51.07,129A72.44,72.44,0,0,0,32,158.66l87.58,133.53a10.14,10.14,0,0,1-17,11.13L26.41,187.17c-2,32.38,8.6,70.77,31.74,106.05,43,65.57,113.17,95.59,156.7,67s44-104.86,1-170.43C192.66,154.54,161.66,129.57,131.17,118.46Z"/><rect class="cls-1" x="317.81" y="243.68" width="39.38" height="625.24"/><ellipse class="cls-1" cx="336.9" cy="142.26" rx="94.26" ry="141.99"/><ellipse class="cls-2" cx="336.9" cy="142.26" rx="77.56" ry="116.83"/><ellipse class="cls-1" cx="446.68" cy="876.08" rx="434.32" ry="24.92"/><path class="cls-3" d="M703.53,875.71a1387.34,1387.34,0,0,0-492.23,0,18,18,0,0,1-21.16-17.65v-223H724.69v223a17.95,17.95,0,0,1-21.16,17.65Z"/><path class="cls-3" d="M675.77,470.39a110.85,110.85,0,0,0-36.27,6.07C590.1,369.31,463.18,322.49,356,371.89A213.62,213.62,0,0,0,252.38,474.51,111,111,0,1,0,266.9,683c64.72,98.63,197.16,126.12,295.79,61.39a213.61,213.61,0,0,0,63.06-64,111,111,0,1,0,50-210Z"/><path class="cls-4" d="M233.09,565.85h-2.38A212.89,212.89,0,0,1,251.29,474l2.15,1A210.62,210.62,0,0,0,233.09,565.85Z"/><path class="cls-4" d="M660.26,565.85h-2.39A210.54,210.54,0,0,0,638.43,477l2.17-1A213.19,213.19,0,0,1,660.26,565.85Z"/><path class="cls-4" d="M190.43,738.83l-.58-2.32c.67-.17,68.49-16.82,167.88-25.09C449.47,703.79,587.65,702,725,736.51l-.58,2.32c-137-34.48-274.88-32.64-366.42-25C258.77,722,191.1,738.66,190.43,738.83Z"/><path class="cls-4" d="M190.43,771l-.58-2.31c.67-.17,68.49-16.83,167.88-25.09C449.47,736,587.65,734.17,725,768.73L724.4,771c-137-34.47-274.88-32.63-366.42-25C258.77,754.26,191.1,770.88,190.43,771Z"/><path class="cls-4" d="M190.43,803.26l-.58-2.32c.67-.16,68.49-16.82,167.88-25.09,91.74-7.62,229.92-9.46,367.25,25.09l-.58,2.32c-137-34.47-274.88-32.64-366.42-25C258.77,786.48,191.1,803.09,190.43,803.26Z"/><path class="cls-5" d="M629.55,628.08l-28.91-9.83L628.4,476.58l-19.08-1.73c-18.61,14.27-43.39,19.87-75.17,15.61L585,567.37l-25.95,18.31L476.31,486.4a24.89,24.89,0,0,1-5.77-15.94h0a24.89,24.89,0,0,1,18-23.93l88.38-25.46,103.51,11.57c15.65,23.85,16.26,40.45-7.56,45.23Z"/><path class="cls-5" d="M600,683.19h0A19,19,0,0,1,582.16,663a18.85,18.85,0,0,1,1.26-5.69l14.37-37c7.3-13.83,17.32-12.1,29.15,0l5.79,17a11,11,0,0,1-.64,8.56l-14,27.09A19,19,0,0,1,600,683.19Z"/><path class="cls-5" d="M562.6,634.79h0a19,19,0,0,1-17.8-20.2,18.84,18.84,0,0,1,1.25-5.7l14.38-37c7.3-13.83,17.32-12.1,29.15,0l5.78,17a11,11,0,0,1-.64,8.56l-14,27.09A19,19,0,0,1,562.6,634.79Z"/><circle class="cls-6" cx="580.98" cy="253.39" r="32.38"/><polygon class="cls-6" points="631.29 299.07 586.76 322.2 577.51 280.56 608.16 261.48 631.29 299.07"/><path class="cls-4" d="M685.06,438.42c-44.42-13.42-84.73-20.37-113.91-9.83,10.06-28.29-8.5-71.49-28.91-115.65,8.81-11.51,22.85-16,38.74-17.92,17.4,12.63,29.52,4.52,38.74-15,20.11-.8,39.49,6.32,58.41,18.51C663.34,345.84,666,392.47,685.06,438.42Z"/><path class="cls-4" d="M570.57,435.53c-7,4.13-13.49,11.1-19.66,19.66-10.42-6.38-19.6-13.65-26.83-22.29a47.73,47.73,0,0,1-8.74-44.66L535.1,324a28.15,28.15,0,0,1,9.16-13.58l2.61-2.12,26,49.15-26,48.57C550.17,414.89,559.89,425.11,570.57,435.53Z"/><path class="cls-6" d="M579.53,484.49h0a16.71,16.71,0,0,1-22.14-8.27,17,17,0,0,1-1.33-4.52l-4.3-29.44,15-8.09,19.08,25a16.72,16.72,0,0,1-3.14,23.43A16.53,16.53,0,0,1,579.53,484.49Z"/><path class="cls-5" d="M613.65,252l-5.53.16-15.33-21.72c-19.65,2-35.76,10.57-49.38,23.65L542,244.84a34.74,34.74,0,0,1,27.33-39.16h0a34.73,34.73,0,0,1,41,27c.09.41.16.82.23,1.23Z"/><path class="cls-6" d="M551.47,455.2h0a16.72,16.72,0,0,1,12.79-23.47l29.44-4.3,8.1,15-25,19.08a16.73,16.73,0,0,1-25.35-6.35Z"/><path class="cls-4" d="M690.67,428.42c-28,2.17-58.59,10.91-90.61,23.3a44.22,44.22,0,0,0-9.83-26c29.08-7.66,55.47-16.65,71.7-30.65l-9.83-74,21.4-24.29,3.69,1.93a24.62,24.62,0,0,1,12.49,15.68c9,35.14,13.05,68.81,10.29,100.49A12.5,12.5,0,0,1,690.67,428.42Z"/><path class="cls-4" d="M126.76,869.05q-39.08,24.45-78.15,0a5.29,5.29,0,0,1-2.51-4.88l8.13-105.68H120l9.28,105.64A5.26,5.26,0,0,1,126.76,869.05Z"/><ellipse class="cls-4" cx="86.8" cy="759.67" rx="33.18" ry="11.95"/><path class="cls-3" d="M112.81,755.63q-25.93,18.25-50.21,0V736.51h50.21Z"/><ellipse class="cls-3" cx="87.7" cy="736.51" rx="25.1" ry="9.56"/><ellipse class="cls-7" cx="88.9" cy="735.31" rx="2.39" ry="1.2"/><ellipse class="cls-7" cx="100.19" cy="735.31" rx="2.39" ry="1.2"/><ellipse class="cls-7" cx="94.54" cy="738.14" rx="2.39" ry="1.2"/><ellipse class="cls-7" cx="71.96" cy="738.14" rx="2.39" ry="1.2"/><ellipse class="cls-7" cx="77.61" cy="735.31" rx="2.39" ry="1.2"/><ellipse class="cls-7" cx="83.25" cy="739.55" rx="2.39" ry="1.2"/><path class="cls-4" d="M848.65,869.05q-39.07,24.45-78.15,0a5.29,5.29,0,0,1-2.51-4.88l8.13-105.68h65.74l9.29,105.64A5.28,5.28,0,0,1,848.65,869.05Z"/><ellipse class="cls-4" cx="808.69" cy="759.67" rx="33.18" ry="11.95"/><path class="cls-3" d="M834.69,755.63q-25.94,18.25-50.2,0V736.51h50.2Z"/><ellipse class="cls-3" cx="809.59" cy="736.51" rx="25.1" ry="9.56"/><ellipse class="cls-7" cx="810.78" cy="735.31" rx="2.39" ry="1.2"/><ellipse class="cls-7" cx="822.07" cy="735.31" rx="2.39" ry="1.2"/><ellipse class="cls-7" cx="816.43" cy="738.14" rx="2.39" ry="1.2"/><ellipse class="cls-7" cx="793.85" cy="738.14" rx="2.39" ry="1.2"/><ellipse class="cls-7" cx="799.49" cy="735.31" rx="2.39" ry="1.2"/><ellipse class="cls-7" cx="805.14" cy="739.55" rx="2.39" ry="1.2"/></g></svg>