<svg xmlns="http://www.w3.org/2000/svg" viewBox="0 0 3102 1589"><defs><style>.cls-1{fill:#fff;}.cls-2{fill:#fff8e1;}</style></defs><g id="Layer_4" data-name="Layer 4"><g id="Rectangle_64" data-name="Rectangle 64"><path class="cls-1" d="M.29.46v421.3l.81.57V1.26H3101.48V1540c.28.35.55.69.81,1V.46Z"/></g><path class="cls-2" d="M3101.48,1.26V1540c-272.13-350.29-802.05-275-1172.23-337.72-445.17-75.45-377.26-626.26-716.8-731.89S691.83,561,224,508.15c-85.13-9.61-159-41-222.93-85.82V1.26Z"/><path class="cls-2" d="M3102.29.46V1541.08c-.26-.35-.53-.69-.81-1V1.26H1.1V422.33l-.81-.57V.46Z"/><path id="Path_201" data-name="Path 201" class="cls-2" d="M171.88,521.8c39.16,10.94,96.41,20.63,176.41,15.58-42.11,16.84-59.37,15.57-92.63,13S198.83,536.53,171.88,521.8Z"/><path id="Path_202" data-name="Path 202" class="cls-2" d="M2513.71,1279.64c60.47,14.94,117.4,24.91,191.39,41.27-32,2.85-66.76.06-96.65-4.91S2555,1306,2513.71,1279.64Z"/></g></svg>