<svg xmlns="http://www.w3.org/2000/svg" viewBox="0 0 1458 901"><defs><style>.cls-1{fill:#a56314;}.cls-2{fill:#cacaca;}.cls-3{fill:#ffbb58;}.cls-4{fill:#d6d6d6;}.cls-5{fill:#bfbfbf;}.cls-6{opacity:0.2;isolation:isolate;}.cls-7{fill:#ff6584;}.cls-8{fill:#ddd;}.cls-9{fill:#a0616a;}.cls-10{fill:#2f2e41;}.cls-11{fill:#ffb6b6;}</style></defs><g id="Layer_4" data-name="Layer 4"><ellipse class="cls-1" cx="368.44" cy="15.76" rx="14.65" ry="14.98"/><ellipse class="cls-1" cx="419.05" cy="15.76" rx="14.65" ry="14.98"/><ellipse class="cls-1" cx="469.67" cy="15.76" rx="14.65" ry="14.98"/><path class="cls-1" d="M527.38,27.6a1.72,1.72,0,0,1-1.24-.52L516.25,17a1.75,1.75,0,0,1,0-2.42l9.89-10.11a1.74,1.74,0,0,1,2.48,2.43l-8.7,8.89,8.7,8.9a1.73,1.73,0,0,1-1.24,2.94Z"/><path class="cls-1" d="M544,27.6a1.72,1.72,0,0,1-1.21-.49,1.74,1.74,0,0,1,0-2.45l8.7-8.9-8.7-8.89a1.74,1.74,0,0,1,2.48-2.43l9.89,10.11a1.75,1.75,0,0,1,0,2.42l-9.89,10.11A1.72,1.72,0,0,1,544,27.6Z"/><path class="cls-1" d="M1061.18,2.52H1042.8a3.8,3.8,0,0,0-3.8,3.79v18.4a3.8,3.8,0,0,0,3.8,3.8h18.38a3.81,3.81,0,0,0,3.81-3.8V6.31A3.8,3.8,0,0,0,1061.18,2.52Z"/><path class="cls-1" d="M1016.13,2.52H997.75A3.79,3.79,0,0,0,994,6.31v18.4a3.79,3.79,0,0,0,3.79,3.8h18.38a3.81,3.81,0,0,0,3.81-3.8V6.31A3.8,3.8,0,0,0,1016.13,2.52Z"/><path class="cls-1" d="M1103.63,3.38h-18.38a3.8,3.8,0,0,0-3.8,3.8v18.4a3.8,3.8,0,0,0,3.8,3.79h18.38a3.81,3.81,0,0,0,3.81-3.79V7.18A3.81,3.81,0,0,0,1103.63,3.38Z"/><path class="cls-1" d="M826.55,10.38H679.61a4.63,4.63,0,0,0,0,9.26H826.55a4.63,4.63,0,0,0,0-9.26Z"/><path class="cls-2" d="M1133.69,73.38H327.54a3.13,3.13,0,0,1,0-6.26h806.15a3.13,3.13,0,0,1,0,6.26Z"/><rect class="cls-3" x="936.01" y="117.61" width="75.86" height="16.22" rx="8.11"/><path class="cls-4" d="M905.6,150.06h136.7a8.11,8.11,0,0,1,8.11,8.11h0a8.11,8.11,0,0,1-8.11,8.11H905.6a8.11,8.11,0,0,1-8.11-8.11h0A8.11,8.11,0,0,1,905.6,150.06Z"/><rect class="cls-4" x="897.49" y="182.51" width="152.92" height="16.22" rx="8.11"/><path class="cls-4" d="M352.05,557.8H314.4c-1,0-6.59-2.95-6.59-6.59V530.3c-.18-15.82,51.61-16.86,51.81,0v20.91C359.62,554.85,355.69,557.8,352.05,557.8Z"/><path class="cls-3" d="M354,516.12a14.59,14.59,0,0,0-5.71-.82,3.81,3.81,0,0,0,1.4-.82,5.4,5.4,0,0,1-1.05-.14,2.45,2.45,0,0,1-1-.46,1.16,1.16,0,0,1-.44-1c.07-.48.51-.87.47-1.35s-.69-.82-1-1.26a1.79,1.79,0,0,1,.18-2.15,3.66,3.66,0,0,1,1.16-.91,4.3,4.3,0,0,0-2.28,0,2.54,2.54,0,0,0,.9-2.64,3.85,3.85,0,0,0-2.67-2.47,11.68,11.68,0,0,0-3.77-.31c1.07-.33.91-2,.09-2.78s-2-1.09-2.77-1.9-.71-2.55.4-2.69l-.13-.4a4.29,4.29,0,0,0-5.53,2.53,3.86,3.86,0,0,0-.17.58c-.21,1.27.17,2.68-.46,3.8-.82,1.43-2.8,1.59-4.44,1.44a6.36,6.36,0,0,0-4.75.64,2.81,2.81,0,0,0,1.87,5,13.24,13.24,0,0,0-3.19.42l1,.39a1.56,1.56,0,0,1,.6.34.57.57,0,0,1,.14.64c-.16.29-.58.28-.91.23l-2.18-.33a.83.83,0,0,1-.53,1.57.92.92,0,0,1-.3-.18,3.21,3.21,0,0,1,.54.88,1.08,1.08,0,0,1-.1,1,1.42,1.42,0,0,1-1.63.2l-.53-.22a1.28,1.28,0,0,0,0,.19,3,3,0,0,0,1.29,2.06,3.92,3.92,0,0,0-2.73,6.24,7.13,7.13,0,0,0-3.5-.59,2.45,2.45,0,0,0-2.15,2.45c.2,1.52,2.08,2.08,3.6,2.27a147.48,147.48,0,0,0,36.06,0,13.4,13.4,0,0,0,4.7-1.19,4.87,4.87,0,0,0,2.74-3.79A4.92,4.92,0,0,0,354,516.12Z"/><path class="cls-5" d="M362.89,533.75a2.61,2.61,0,0,0-2.55-2c-1.16,0-2.19.86-3.33.68-.94-.15-1.68-1-2.63-.85s-1.34,1-2,1.42h-1.66c-.65-.51-1-1.54-1.87-1.83-1.35-.44-2.44,1.09-3.86,1.36a4.1,4.1,0,0,1-2.38-.46,7.12,7.12,0,0,0-2.29-.77,1.9,1.9,0,0,0-1.85.81c0-.43-.52-.86-1.09-.88a3.58,3.58,0,0,0-1.79.55,3.43,3.43,0,0,1-1.81.52c-1.42-.13-2.11-1.78-3.54-1.8-1.79,0-2.51,2.53-4.28,2.31-.92-.11-1.42-.95-2.24-1.3a4.74,4.74,0,0,0-2.69,0l-4.19.78a7.27,7.27,0,0,1-3.76,0c-.9-.32-1.77-1-2.7-.76s-1.2,1.14-2.06,1.19a4.08,4.08,0,0,1-1.55-.53,2.37,2.37,0,0,0-2.56.64,14.42,14.42,0,0,0-.22,5.85,5.62,5.62,0,0,0,.09,1.23l4.22,16.88c.5,2.59,1.78,4.46,4.41,4.46h41a5.5,5.5,0,0,0,5.4-4.46l4.22-16.88s0-.08,0-.13A23.85,23.85,0,0,0,362.89,533.75Z"/><path class="cls-6" d="M312.76,532.48l.82,10.65c.27,3.55-.13,7.06.14,10.61.15,2,1,4,1.14,6,0,.23.39.24.37,0l-.82-10.66-.82-10.65-.46-6c0-.24-.39-.24-.37,0Z"/><path class="cls-6" d="M319.88,532.9l.32,10.5.32,10.5.18,5.89a.18.18,0,1,0,.36,0l-.31-10.5-.32-10.5-.18-5.89C320.24,532.66,319.87,532.66,319.88,532.9Z"/><path class="cls-6" d="M326.78,533.53l-.1,10.15-.1,10.08-.05,5.72a.19.19,0,0,0,.19.18.19.19,0,0,0,.18-.18l.09-10.15.1-10.08.05-5.72a.18.18,0,0,0-.19-.18A.18.18,0,0,0,326.78,533.53Z"/><path class="cls-6" d="M332,533.22l.2,10.27.2,10.21.11,5.78a.19.19,0,0,0,.37,0l-.2-10.27-.2-10.21-.11-5.78a.2.2,0,0,0-.2-.18.18.18,0,0,0-.17.18Z"/><path class="cls-6" d="M339.58,532.8l.23,10.54.23,10.55.13,5.9a.19.19,0,0,0,.19.18.18.18,0,0,0,.18-.18l-.23-10.54-.23-10.55-.13-5.9a.18.18,0,0,0-.19-.18A.19.19,0,0,0,339.58,532.8Z"/><path class="cls-6" d="M345.89,533.12l.8,10.62.8,10.6.46,6c0,.24.38.24.36,0l-.8-10.63-.8-10.59-.46-6C346.24,532.88,345.87,532.88,345.89,533.12Z"/><path class="cls-6" d="M352.89,534.35l.49,9.73c.16,3.24-.66,6.48-.5,9.72l.27,5.46c0,.24.38.24.37,0-.16-3.24.66-6.48.5-9.72l-.49-9.73-.27-5.46C353.25,534.12,352.88,534.12,352.89,534.35Z"/><ellipse class="cls-4" cx="331.5" cy="506.73" rx="1.42" ry="0.98"/><ellipse class="cls-1" cx="340.48" cy="508.95" rx="1.42" ry="0.98"/><ellipse class="cls-7" cx="327.93" cy="513.74" rx="1.42" ry="0.98"/><ellipse class="cls-4" cx="339.63" cy="515.4" rx="0.89" ry="0.62"/><ellipse class="cls-1" cx="345.31" cy="516.8" rx="0.89" ry="0.62"/><ellipse class="cls-7" cx="337.38" cy="519.84" rx="0.89" ry="0.62"/><ellipse class="cls-4" cx="348" cy="518.85" rx="0.89" ry="0.62"/><ellipse class="cls-1" cx="353.68" cy="520.25" rx="0.89" ry="0.62"/><ellipse class="cls-7" cx="345.75" cy="523.28" rx="0.89" ry="0.62"/><ellipse class="cls-4" cx="324.33" cy="516.11" rx="0.89" ry="0.62" transform="translate(-231.21 766.96) rotate(-82.15)"/><ellipse class="cls-1" cx="322.17" cy="521.54" rx="0.89" ry="0.62" transform="matrix(0.14, -0.99, 0.99, 0.14, -238.46, 769.51)"/><ellipse class="cls-7" cx="320.25" cy="513.27" rx="0.89" ry="0.62" transform="translate(-231.93 760.46) rotate(-82.15)"/><ellipse class="cls-4" cx="334.05" cy="513.15" rx="0.89" ry="0.62" transform="matrix(0.14, -0.99, 0.99, 0.14, -219.89, 774.04)"/><ellipse class="cls-1" cx="331.89" cy="518.59" rx="0.89" ry="0.62" transform="translate(-227.14 776.59) rotate(-82.15)"/><ellipse class="cls-7" cx="329.97" cy="510.31" rx="0.89" ry="0.62" transform="translate(-220.61 767.54) rotate(-82.15)"/><ellipse class="cls-1" cx="336.69" cy="507.14" rx="0.89" ry="0.62" transform="translate(-211.66 771.46) rotate(-82.16)"/><ellipse class="cls-7" cx="334.77" cy="498.87" rx="0.89" ry="0.62" transform="translate(-205.13 762.41) rotate(-82.15)"/><ellipse class="cls-4" cx="679.75" cy="392.74" rx="13.09" ry="9.11"/><ellipse class="cls-1" cx="762.86" cy="413.23" rx="13.09" ry="9.11"/><ellipse class="cls-7" cx="646.73" cy="457.63" rx="13.09" ry="9.11"/><ellipse class="cls-4" cx="832.41" cy="504.87" rx="8.27" ry="5.76"/><ellipse class="cls-1" cx="884.94" cy="517.82" rx="8.27" ry="5.76"/><ellipse class="cls-4" cx="613.42" cy="479.47" rx="8.27" ry="5.76" transform="translate(54.71 1021.71) rotate(-82.16)"/><ellipse class="cls-1" cx="593.42" cy="529.74" rx="8.27" ry="5.76" transform="translate(-12.36 1045.3) rotate(-82.15)"/><ellipse class="cls-7" cx="575.64" cy="453.21" rx="8.27" ry="5.76" transform="translate(48.11 961.6) rotate(-82.16)"/><ellipse class="cls-4" cx="703.36" cy="452.15" rx="8.27" ry="5.76" transform="translate(159.44 1087.21) rotate(-82.15)"/><ellipse class="cls-7" cx="665.58" cy="425.88" rx="8.27" ry="5.76" transform="translate(152.84 1027.11) rotate(-82.15)"/><path class="cls-8" d="M1021,867.92a4.11,4.11,0,0,0,4.3-3.92,4.07,4.07,0,0,0-1.32-3.21c-.1-.41-.17-.71-.28-1.12a11,11,0,0,1,20.49-.19c4.88,11.41,11.19,23.22,8,35.79,20.73-43.93,13.68-98.57-17-136.14a33.67,33.67,0,0,1-17.12-22.57c4.19,1.42,9.41-2,6.26-6.4-1.36-1.69-2.74-3.36-4.11-5,15.92-17,34.89,9.69,17.37,32.57a132.24,132.24,0,0,1,14.81,23.17,55.42,55.42,0,0,1,3.31-25.76c3.17-7.64,9.11-14.08,14.34-20.69a11.38,11.38,0,0,1,20.3,5.88c-5.87,1.93-6.63,10.41.09,11.57a56.8,56.8,0,0,1-31.29,44.82,132.31,132.31,0,0,1,7.24,55.34c3-21.92,26.54-27.24,43-36a6.41,6.41,0,0,1,9.77,6.49,36.79,36.79,0,0,0-6.48,3.42,5.59,5.59,0,0,0,2.6,10.21c-8.29,20.51-29.72,34.29-51.73,34.21a135.89,135.89,0,0,1-9.14,26.69h-32.67l-.33-1.1a37,37,0,0,0,9-.54c-8-9.47-14.18-14.3-9.53-27.52Z"/><path class="cls-8" d="M381.38,867.43a4.11,4.11,0,0,1-3-7.13l.28-1.12a11,11,0,0,0-20.49-.19c-4.87,11.41-11.18,23.22-8.05,35.79-20.72-43.93-13.67-98.57,17-136.14a33.69,33.69,0,0,0,17.11-22.57c-4.19,1.42-9.41-2-6.26-6.4l4.11-5c-15.92-17-34.88,9.69-17.36,32.57a132.29,132.29,0,0,0-14.82,23.17,55.44,55.44,0,0,0-3.31-25.76c-3.17-7.64-9.11-14.08-14.34-20.69a11.38,11.38,0,0,0-20.3,5.88c5.87,1.93,6.63,10.41-.08,11.57a56.79,56.79,0,0,0,31.28,44.82,132.3,132.3,0,0,0-7.23,55.34c-3-21.92-26.55-27.23-43-35.94a6.4,6.4,0,0,0-9.77,6.48,37.92,37.92,0,0,1,6.49,3.42,5.59,5.59,0,0,1-2.6,10.21c8.29,20.51,29.71,34.29,51.72,34.21a135.92,135.92,0,0,0,9.15,26.69h32.66c.12-.36.22-.73.33-1.1a37.53,37.53,0,0,1-9-.53c8-9.48,14.19-14.31,9.53-27.53Z"/><path class="cls-9" d="M463.22,485l-3.48-20.14L512.57,441l11.4-20.2a9.82,9.82,0,1,1,14.51,6.52l-18.77,29Z"/><polygon class="cls-3" points="447.16 468.56 470.95 456.41 477.25 480.05 460.72 492.3 447.16 468.56"/><polygon class="cls-9" points="393.78 870.45 408.17 870.45 415.01 814.97 393.78 814.97 393.78 870.45"/><path class="cls-10" d="M413,871.74V862l-3.78.23-15.39.92-3.56.21L387.49,896l-.14,1.75h10.21l.33-1.74,1.48-7.9,3.83,7.9.84,1.74h27.08a6.12,6.12,0,0,0,6.08-6.09c1.14-5.34-21.38-16.87-24.25-19.93Z"/><polygon class="cls-9" points="223.4 818.67 235.16 826.95 272.7 785.54 255.35 773.31 223.4 818.67"/><path class="cls-10" d="M238.75,829.71l5.61-8-3.22-2L228,811.63l-3-1.88-21,25.13-1.13,1.35,8.35,5.88,1.27-1.23,5.77-5.61-1.43,8.67-.31,1.9,22.13,15.6a6.13,6.13,0,0,0,8.48-1.48c4-3.71-7.75-26.11-8.34-30.25Z"/><path class="cls-9" d="M416,511.41l-18.51-8.66-36.92,44.68-22.49,5.69a9.82,9.82,0,1,0,2.47,15.71l32.93-10.47Z"/><path class="cls-10" d="M397.36,583.37S367,603.15,375,616.3c.27.45-64.71,90.66-64.71,90.66l-72.86,78.55,25.05,22.77S331.72,736.2,343.33,724s62.33-73,62.33-73l1.87,75.22L388.11,830.47l29-1.84,28.22-104.58,10.42-118.47Z"/><path class="cls-3" d="M419,464.67l-12.77,9.68-14.56,31.07,14,19s11.78,20.41-7.07,40.18-33.33,40.87-18.24,40.12,76.19,30.32,76.6,4.86,1.21-45,1.21-45l16-40.64s9.55-24.24,2.85-31.49S461.35,476,461.35,476L445,459.63H430.3Z"/><path class="cls-9" d="M442.84,405c28.65,16.31,5.13,59.33-24.06,44C390.13,432.67,413.65,389.64,442.84,405Z"/><path class="cls-10" d="M458.16,414c-2,2.61-6.2,1.38-14.42,3.25a34.36,34.36,0,0,0-.95-8.27,23.12,23.12,0,0,1-3.93,9.3c-7.13.79,1.61,22.46-2,38.4-4.7-33.62-14.6-24.81-9.6-18.14,3.2,4.27,1.06,17.07-8.54,10.67-15.84,7.53-38.41-29.88-13.4-47.42-.45-9.49,10.11-11,16.6-8.07C437.65,382,455.67,397,458.16,414Z"/><path class="cls-10" d="M384.64,389.48c-6.38,39.22-40.58-7.22-56.66,31.39-5.05,14,3.62,24,9.11,35.58,1.25,9.54-11.15,14.37-12.45,23.15-.37,20.12,32.1,18.89,41.18,6.2,9.32-13.29-1.81-31.13,3.79-45.39,7.88-19.81,39.92-20,42.71-43C406.92,389.71,392.38,380.9,384.64,389.48Z"/><path class="cls-10" d="M410.48,393.31c-.21.09-.42.18-.6.28h0c-.18.08-.35.17-.53.27l0,0-.71-.66a2.46,2.46,0,0,0,.05,1.08l0,.13c.22.23.45.45.69.68l.65-.5c.13-.11.26-.22.41-.33,0-.29,0-.62.08-1Zm6.62-12.21c-4.9-1.12-6.49,5.28-7,8.37-1.78-11.21-9.18-7.68-6.62,0a17,17,0,0,0,3.77,6.07c.23.26.48.52.74.79-.29,1.54,1.2,1.14,3.22-.28a27.19,27.19,0,0,0,4.12-3.61C419.4,388.17,422.54,382.51,417.1,381.1Zm.15,6.3a38.39,38.39,0,0,1-5.06,5.37c-.59.53-1.18,1-1.78,1.52,0,.1,0,.19,0,.26a1.77,1.77,0,0,1-.15.31c-.62,1.11-1.31.51-1.57-.42a.87.87,0,0,1-.08-.1,14.86,14.86,0,0,1-2.27-3c-4.54-7.86,2.77-13.21,2.4,1.48a1.57,1.57,0,0,0-.13.42,2.46,2.46,0,0,0,.05,1.08l0,.13c.22.23.45.45.69.68l.65-.5c.13-.11.26-.22.41-.33,0-.29,0-.62.08-1h0c.29-2.94,1.07-8.24,2.51-9.68,3.16-2.42,7.26.2,4.25,3.78Zm-6.77,5.91c-.21.09-.42.18-.6.28h0c-.18.08-.35.17-.53.27l0,0-.71-.66a2.46,2.46,0,0,0,.05,1.08l0,.13c.22.23.45.45.69.68l.65-.5c.13-.11.26-.22.41-.33,0-.29,0-.62.08-1Z"/><polygon class="cls-11" points="1013.93 872.75 999.86 875.95 980.82 823.22 1001.58 818.49 1013.93 872.75"/><path class="cls-10" d="M1017.76,887.31l-43.25,9.85-.13-.55a17.28,17.28,0,0,1,13-20.67h0l6.54-7.79,16.1,2.64,3.78-.86,4,17.38Z"/><polygon class="cls-11" points="1197.37 845.03 1185.22 852.81 1149.43 809.65 1167.36 798.16 1197.37 845.03"/><path class="cls-10" d="M1205.91,857.43l-37.36,23.92-.3-.47a17.26,17.26,0,0,1,5.23-23.85h0l3.51-9.55,16-3,3.26-2.08Z"/><polygon class="cls-10" points="1004.57 610.05 993.98 637.65 944.34 735.58 987.96 849.5 1010.47 843.56 991.92 735.58 1045.16 670.89 1076.07 737.36 1164.87 835.26 1185.36 821.6 1119.33 720.28 1075.36 591.78 1004.57 610.05"/><path class="cls-3" d="M1058,479.86l-17.42-18.72L1010.66,457,974,482.66l.37,28.38,18.1,66.86s-6.89,48,12.37,47.55,29.75-10.08,37.6-8.12,41.18,10.27,43.3,1.55,13.34-2.47,12.85-10.71-30.41-67.66-30.41-67.66l5.24-41.82A16.79,16.79,0,0,0,1058.88,480h0c-.3,0-.61-.07-.91-.09Z"/><path class="cls-11" d="M1178.19,597.79a10.69,10.69,0,0,1-12.88-10.09l-80.1-31.54,15.24-12.49,75.94,32.89a10.73,10.73,0,0,1,1.8,21.23Z"/><path class="cls-3" d="M1064.74,483.33s-13.65-.11-15.32,15.42,26.93,54.93,31.35,61.42c1.39,2,7.34,4.34,14.86,6.56,3.37,1,7.06,2,10.8,2.89,2.16.53,3.13,4.12,5.27,4.61s5.43-2.11,7.44-1.68c9.51,2.07,17,3.44,17,3.44L1154,563.87c-9-13.24-26.13-18.66-45.58-21.9Z"/><path class="cls-11" d="M864,411.19a10.67,10.67,0,0,0,12.17,8.93,11.64,11.64,0,0,0,1.83-.45l57.85,63.74,6.28-18.68-57.64-59.37A10.73,10.73,0,0,0,864,411.19Z"/><path class="cls-3" d="M1011.18,476.77s4.93,12.72-9,19.79-60.9-5.74-68.53-7.58c-2.39-.58-6.66-5.32-11.4-11.57-2.12-2.8-4.34-5.91-6.53-9.08-1.27-1.83-5-1.47-6.18-3.3s.05-5.83-1.06-7.55c-5.3-8.16-9.25-14.7-9.25-14.7l5-20.92c15.56,3.7,26.71,17.83,36.62,34.86Z"/><circle class="cls-11" cx="1026.2" cy="423.83" r="28.43"/><path class="cls-10" d="M1058.66,407.55a14.68,14.68,0,0,0-14.05-6.84,19.18,19.18,0,0,0-32.13-11.19,6,6,0,0,0-5.84-.58,12.36,12.36,0,0,0-4.74,3.8A27.61,27.61,0,0,0,998,420.82c-.66-2.42,1.76-4.69,4.21-5.24s5,0,7.5-.38c3.18-.45,6-2.3,9.22-2.71a21,21,0,0,1,8,1,21.38,21.38,0,0,0,8,1.07c2.68-.31,6.13,9.85,6.09,17,0,1.36.27,3.1,1.59,3.39,1.64.35,2.58-1.9,4.14-2.52a2.87,2.87,0,0,1,3.52,1.88,4.66,4.66,0,0,1-.89,4.19,14,14,0,0,1-3.36,2.92l.64.53a3.83,3.83,0,0,0,4.81.6,10.54,10.54,0,0,0,3.45-3.93,46.34,46.34,0,0,0,6.33-15.17A22.13,22.13,0,0,0,1058.66,407.55Z"/><ellipse class="cls-1" cx="727.76" cy="396.54" rx="8.27" ry="5.76" transform="translate(235.6 1063.37) rotate(-82.15)"/><path class="cls-4" d="M1198.76,591.55h-37.65c-1,0-6.59-2.95-6.59-6.59V564.05c-.18-15.82,51.62-16.86,51.81,0V585C1206.33,588.6,1202.4,591.55,1198.76,591.55Z"/><path class="cls-3" d="M1200.71,549.87a14.57,14.57,0,0,0-5.7-.82,3.85,3.85,0,0,0,1.39-.82,5.4,5.4,0,0,1-1.05-.14,2.45,2.45,0,0,1-1-.46,1.16,1.16,0,0,1-.44-1c.07-.48.52-.87.47-1.35s-.69-.82-1-1.26a1.79,1.79,0,0,1,.18-2.15,3.59,3.59,0,0,1,1.17-.91,4.34,4.34,0,0,0-2.29,0,2.54,2.54,0,0,0,.9-2.64,3.85,3.85,0,0,0-2.67-2.47,11.66,11.66,0,0,0-3.77-.31c1.08-.33.91-2,.09-2.78s-2-1.09-2.77-1.9-.71-2.55.41-2.69l-.14-.4a4.3,4.3,0,0,0-5.53,2.53,3.86,3.86,0,0,0-.17.58c-.2,1.27.18,2.68-.46,3.8-.82,1.43-2.8,1.59-4.43,1.44a6.38,6.38,0,0,0-4.76.64,2.81,2.81,0,0,0,1.88,5,13.32,13.32,0,0,0-3.2.42l1,.39a1.56,1.56,0,0,1,.6.34.57.57,0,0,1,.14.64c-.16.29-.58.28-.91.23l-2.18-.33a.83.83,0,0,1-.52,1.57.75.75,0,0,1-.3-.18,3.44,3.44,0,0,1,.53.88,1.08,1.08,0,0,1-.1,1,1.42,1.42,0,0,1-1.63.2l-.53-.22a1.28,1.28,0,0,0,0,.19,3,3,0,0,0,1.29,2.06,3.92,3.92,0,0,0-2.72,6.24,7.17,7.17,0,0,0-3.51-.59,2.46,2.46,0,0,0-2.15,2.45c.2,1.52,2.08,2.08,3.61,2.27a147.4,147.4,0,0,0,36,0,13.51,13.51,0,0,0,4.71-1.19,4.83,4.83,0,0,0,2.73-3.79A4.91,4.91,0,0,0,1200.71,549.87Z"/><path class="cls-5" d="M1209.6,567.5a2.61,2.61,0,0,0-2.55-2c-1.15,0-2.19.86-3.33.68-.94-.15-1.68-1-2.63-.85s-1.34,1-2,1.42h-1.66c-.65-.51-1-1.54-1.87-1.83-1.35-.44-2.44,1.09-3.85,1.36a4.07,4.07,0,0,1-2.38-.46,7.18,7.18,0,0,0-2.3-.77,1.9,1.9,0,0,0-1.85.81c0-.43-.51-.86-1.08-.88a3.59,3.59,0,0,0-1.8.55,3.4,3.4,0,0,1-1.81.52c-1.42-.13-2.11-1.78-3.54-1.8-1.79,0-2.51,2.53-4.28,2.31-.92-.11-1.42-.95-2.24-1.3a4.7,4.7,0,0,0-2.68,0l-4.2.78a7.26,7.26,0,0,1-3.76,0c-.9-.32-1.77-1-2.7-.76s-1.2,1.14-2.06,1.19a4.14,4.14,0,0,1-1.55-.53,2.37,2.37,0,0,0-2.56.64,14.42,14.42,0,0,0-.22,5.85,5.62,5.62,0,0,0,.09,1.23l4.22,16.88c.5,2.59,1.78,4.46,4.42,4.46h41a5.49,5.49,0,0,0,5.4-4.46l4.22-16.88s0-.08,0-.13A23.85,23.85,0,0,0,1209.6,567.5Z"/><path class="cls-6" d="M1159.47,566.23l.82,10.65c.27,3.55-.13,7.06.14,10.61.15,2,1,4,1.14,6,0,.23.39.24.37,0l-.82-10.66-.82-10.65-.46-6C1159.82,566,1159.45,566,1159.47,566.23Z"/><path class="cls-6" d="M1166.59,566.65l.32,10.5.32,10.5.18,5.89a.19.19,0,0,0,.37,0l-.32-10.5-.32-10.5-.18-5.89C1167,566.41,1166.58,566.41,1166.59,566.65Z"/><path class="cls-6" d="M1173.49,567.28l-.1,10.15-.1,10.08,0,5.72a.19.19,0,0,0,.19.18.19.19,0,0,0,.18-.18l.1-10.15.09-10.08.06-5.72a.19.19,0,0,0-.19-.18A.18.18,0,0,0,1173.49,567.28Z"/><path class="cls-6" d="M1178.7,567l.2,10.27.2,10.21.11,5.78a.18.18,0,0,0,.2.18.18.18,0,0,0,.17-.18l-.2-10.27-.2-10.21-.11-5.78a.19.19,0,0,0-.19-.18A.18.18,0,0,0,1178.7,567Z"/><path class="cls-6" d="M1186.29,566.55l.23,10.54.23,10.55.13,5.9a.2.2,0,0,0,.2.18.18.18,0,0,0,.17-.18L1187,583l-.23-10.55-.13-5.9a.18.18,0,0,0-.19-.18A.19.19,0,0,0,1186.29,566.55Z"/><path class="cls-6" d="M1192.6,566.87l.8,10.62.81,10.6.45,6c0,.24.38.24.37,0l-.81-10.63-.8-10.59-.45-6C1193,566.63,1192.58,566.63,1192.6,566.87Z"/><path class="cls-6" d="M1199.6,568.1l.49,9.73c.16,3.24-.66,6.48-.5,9.72l.27,5.46c0,.24.38.24.37,0-.16-3.24.66-6.48.5-9.72l-.49-9.73-.27-5.46C1200,567.87,1199.59,567.87,1199.6,568.1Z"/><ellipse class="cls-4" cx="1178.21" cy="540.48" rx="1.42" ry="0.98"/><ellipse class="cls-1" cx="1187.2" cy="542.7" rx="1.42" ry="0.98"/><ellipse class="cls-7" cx="1174.64" cy="547.49" rx="1.42" ry="0.98"/><ellipse class="cls-4" cx="1186.35" cy="549.15" rx="0.89" ry="0.62"/><ellipse class="cls-1" cx="1192.02" cy="550.55" rx="0.89" ry="0.62"/><ellipse class="cls-7" cx="1184.09" cy="553.59" rx="0.89" ry="0.62"/><ellipse class="cls-4" cx="1194.71" cy="552.6" rx="0.89" ry="0.62"/><ellipse class="cls-1" cx="1200.39" cy="554" rx="0.89" ry="0.62"/><ellipse class="cls-7" cx="1192.46" cy="557.03" rx="0.89" ry="0.62"/><ellipse class="cls-4" cx="1171.04" cy="549.86" rx="0.89" ry="0.62" transform="translate(466.49 1634.89) rotate(-82.15)"/><ellipse class="cls-1" cx="1168.88" cy="555.29" rx="0.89" ry="0.62" transform="translate(459.25 1637.43) rotate(-82.16)"/><ellipse class="cls-7" cx="1166.96" cy="547.02" rx="0.89" ry="0.62" transform="translate(465.78 1628.39) rotate(-82.15)"/><ellipse class="cls-4" cx="1180.76" cy="546.9" rx="0.89" ry="0.62" transform="translate(477.81 1641.97) rotate(-82.15)"/><ellipse class="cls-1" cx="1178.6" cy="552.33" rx="0.89" ry="0.62" transform="translate(470.57 1644.52) rotate(-82.15)"/><ellipse class="cls-7" cx="1176.68" cy="544.06" rx="0.89" ry="0.62" transform="translate(477.1 1635.47) rotate(-82.15)"/><ellipse class="cls-1" cx="1183.4" cy="540.89" rx="0.89" ry="0.62" transform="translate(486.05 1639.39) rotate(-82.15)"/><ellipse class="cls-7" cx="1181.48" cy="532.62" rx="0.89" ry="0.62" transform="translate(492.58 1630.34) rotate(-82.15)"/><path class="cls-5" d="M1445.1,899c-1.33,3.93-1427.55,1.4-1429-2.53C17.45,892.56,1443.67,895.09,1445.1,899Z"/><path class="cls-4" d="M571.08,694.38A45.34,45.34,0,1,1,616.41,649a45.33,45.33,0,0,1-45.33,45.34Z"/><path class="cls-4" d="M589,644.57H575.55V631.16a4.47,4.47,0,0,0-8.94,0v13.41H553.19a4.48,4.48,0,0,0,0,8.95h13.42v13.41a4.47,4.47,0,0,0,8.94,0V653.52H589a4.48,4.48,0,0,0,0-8.95Z"/><path class="cls-4" d="M703.7,694.38A45.34,45.34,0,1,1,749,649h0A45.33,45.33,0,0,1,703.7,694.38Z"/><path class="cls-4" d="M721.59,644.57H685.82a4.48,4.48,0,0,0,0,8.95h35.77a4.48,4.48,0,0,0,0-8.95Z"/><path class="cls-3" d="M836.33,694.38A45.34,45.34,0,1,1,881.66,649h0A45.34,45.34,0,0,1,836.33,694.38Z"/><path class="cls-4" d="M861.83,646.89,849,628.13a3.81,3.81,0,0,0-6.29,4.31L851,644.57H818.44a4.48,4.48,0,0,0,0,8.95h33l-8.72,12.72a3.81,3.81,0,0,0,6.29,4.31l12.85-18.75A5,5,0,0,0,861.83,646.89Z"/><path class="cls-3" d="M447.43,158.17h59.64a8.11,8.11,0,0,1,8.11,8.11h0a8.11,8.11,0,0,1-8.11,8.11H447.43a8.12,8.12,0,0,1-8.12-8.11h0A8.12,8.12,0,0,1,447.43,158.17Z"/><path class="cls-4" d="M408.9,190.62H545.6a8.11,8.11,0,0,1,8.11,8.11h0a8.11,8.11,0,0,1-8.11,8.11H408.9a8.11,8.11,0,0,1-8.11-8.11h0A8.11,8.11,0,0,1,408.9,190.62Z"/><rect class="cls-4" x="400.79" y="223.06" width="152.92" height="16.22" rx="8.11"/><polygon class="cls-4" points="537.17 397.23 533.7 397.23 533.7 267.21 286.54 267.21 286.54 263.75 537.17 263.75 537.17 397.23"/><circle class="cls-4" cx="247.92" cy="255.4" r="48.13"/><path class="cls-4" d="M241.35,280.45a5.35,5.35,0,0,1-4.28-2.14L223.94,260.8a5.35,5.35,0,0,1,8.57-6.42h0l8.59,11.45,22.06-33.09a5.35,5.35,0,1,1,8.91,5.94l-26.26,39.39a5.36,5.36,0,0,1-4.31,2.38Z"/><polygon class="cls-4" points="863.64 390.38 860.17 390.38 860.17 256.89 1110.8 256.89 1110.8 260.36 863.64 260.36 863.64 390.38"/><circle class="cls-4" cx="1149.24" cy="248.55" r="48.13"/><path class="cls-4" d="M1142.67,273.6a5.33,5.33,0,0,1-4.28-2.14L1125.26,254a5.36,5.36,0,0,1,8.55-6.45v0l8.59,11.45,22.07-33.1a5.35,5.35,0,0,1,8.91,5.94h0l-26.26,39.4a5.38,5.38,0,0,1-4.31,2.38Z"/><path class="cls-4" d="M550.94,412.59H513.29c-1,0-6.59-2.94-6.59-6.58V385.09c-.18-15.82,51.61-16.85,51.81,0V406C558.51,409.65,554.58,412.59,550.94,412.59Z"/><path class="cls-3" d="M552.89,370.92a14.23,14.23,0,0,0-5.71-.82,3.81,3.81,0,0,0,1.4-.82,5.3,5.3,0,0,1-1.05-.14,2.43,2.43,0,0,1-1-.47,1.16,1.16,0,0,1-.43-1c.07-.47.51-.87.47-1.35s-.69-.82-1-1.26a1.79,1.79,0,0,1,.18-2.15,3.78,3.78,0,0,1,1.16-.9,4.41,4.41,0,0,0-2.28,0,2.53,2.53,0,0,0,.9-2.63,3.87,3.87,0,0,0-2.67-2.48,11.4,11.4,0,0,0-3.77-.3c1.07-.33.91-2,.09-2.78s-2-1.09-2.77-1.9-.71-2.56.4-2.69l-.13-.4a4.3,4.3,0,0,0-5.53,2.52,4.23,4.23,0,0,0-.17.58c-.21,1.28.17,2.69-.47,3.81-.81,1.43-2.79,1.59-4.43,1.43a6.36,6.36,0,0,0-4.75.65,2.8,2.8,0,0,0,1.87,4.95,12.77,12.77,0,0,0-3.19.43l1,.38a1.7,1.7,0,0,1,.6.34.57.57,0,0,1,.14.64c-.16.29-.58.28-.91.23l-2.18-.32a.82.82,0,0,1,.52,1,.83.83,0,0,1-1.05.53.92.92,0,0,1-.3-.18,3.07,3.07,0,0,1,.54.88,1.07,1.07,0,0,1-.1,1,1.41,1.41,0,0,1-1.63.2l-.54-.22c0,.06,0,.13,0,.19a3,3,0,0,0,1.29,2.07,4,4,0,0,0-2.56,1.34,4.1,4.1,0,0,0-.17,4.89,7,7,0,0,0-3.5-.58,2.44,2.44,0,0,0-2.15,2.44c.2,1.53,2.08,2.08,3.6,2.27a147.48,147.48,0,0,0,36.06,0,13.42,13.42,0,0,0,4.7-1.2,4.87,4.87,0,0,0,2.74-3.78A4.92,4.92,0,0,0,552.89,370.92Z"/><path class="cls-5" d="M561.78,388.54a2.6,2.6,0,0,0-2.55-2c-1.16,0-2.19.85-3.33.67-.94-.15-1.68-1-2.63-.85s-1.34,1-2,1.43h-1.66c-.65-.51-1-1.55-1.87-1.84-1.35-.43-2.44,1.09-3.86,1.36a4,4,0,0,1-2.38-.45,7.14,7.14,0,0,0-2.29-.78,1.91,1.91,0,0,0-1.85.82c0-.44-.52-.86-1.09-.89a3.59,3.59,0,0,0-1.79.56,3.51,3.51,0,0,1-1.81.51c-1.42-.12-2.11-1.78-3.54-1.79-1.79,0-2.51,2.53-4.28,2.31-.92-.11-1.42-.95-2.24-1.31a4.74,4.74,0,0,0-2.69,0l-4.19.79a7.37,7.37,0,0,1-3.76,0c-.9-.33-1.77-1-2.7-.77s-1.2,1.14-2.06,1.19a4.08,4.08,0,0,1-1.55-.53,2.37,2.37,0,0,0-2.56.65,14.37,14.37,0,0,0-.22,5.84,5.71,5.71,0,0,0,.09,1.24l4.22,16.88c.5,2.59,1.78,4.46,4.41,4.46h41a5.5,5.5,0,0,0,5.4-4.46l4.22-16.88c0-.05,0-.09,0-.13A23.93,23.93,0,0,0,561.78,388.54Z"/><path class="cls-6" d="M511.65,387.27l.82,10.66c.27,3.55-.13,7.05.14,10.6.15,2,1,4.05,1.14,6.05,0,.24.39.24.37,0l-.82-10.65-.82-10.66-.46-6C512,387,511.63,387,511.65,387.27Z"/><path class="cls-6" d="M518.77,387.69l.32,10.5.32,10.5.18,5.9a.18.18,0,1,0,.36,0l-.31-10.5-.32-10.5-.18-5.9C519.13,387.46,518.76,387.46,518.77,387.69Z"/><path class="cls-6" d="M525.67,388.32l-.1,10.15-.1,10.09-.05,5.72a.17.17,0,0,0,.19.17.19.19,0,0,0,.18-.17l.09-10.15L526,394l0-5.72a.17.17,0,0,0-.19-.17A.18.18,0,0,0,525.67,388.32Z"/><path class="cls-6" d="M530.88,388l.2,10.28.2,10.21.11,5.78a.19.19,0,0,0,.19.18.19.19,0,0,0,.18-.18l-.2-10.27-.2-10.21-.11-5.79a.2.2,0,0,0-.2-.18A.19.19,0,0,0,530.88,388Z"/><path class="cls-6" d="M538.47,387.59l.23,10.55.23,10.54.13,5.91a.19.19,0,0,0,.19.18.19.19,0,0,0,.18-.18L539.2,404,539,393.49l-.13-5.9a.19.19,0,0,0-.19-.18A.19.19,0,0,0,538.47,387.59Z"/><path class="cls-6" d="M544.78,387.91l.8,10.63.8,10.59.46,6c0,.23.38.23.36,0l-.8-10.63-.8-10.6-.46-6C545.13,387.68,544.76,387.67,544.78,387.91Z"/><path class="cls-6" d="M551.78,389.15l.49,9.72c.16,3.24-.66,6.48-.5,9.73l.27,5.46c0,.23.38.23.37,0-.16-3.25.66-6.49.5-9.73l-.49-9.72-.27-5.46C552.14,388.91,551.77,388.91,551.78,389.15Z"/><ellipse class="cls-4" cx="530.39" cy="361.53" rx="1.42" ry="0.98"/><ellipse class="cls-1" cx="539.37" cy="363.74" rx="1.42" ry="0.98"/><ellipse class="cls-7" cx="526.82" cy="368.54" rx="1.42" ry="0.98"/><ellipse class="cls-4" cx="538.52" cy="370.2" rx="0.89" ry="0.62"/><ellipse class="cls-1" cx="544.2" cy="371.6" rx="0.89" ry="0.62"/><ellipse class="cls-7" cx="536.27" cy="374.63" rx="0.89" ry="0.62"/><ellipse class="cls-4" cx="546.89" cy="373.65" rx="0.89" ry="0.62"/><ellipse class="cls-1" cx="552.57" cy="375.05" rx="0.89" ry="0.62"/><ellipse class="cls-7" cx="544.64" cy="378.08" rx="0.89" ry="0.62"/><ellipse class="cls-4" cx="523.22" cy="370.9" rx="0.89" ry="0.62" transform="translate(84.38 838.6) rotate(-82.15)"/><ellipse class="cls-1" cx="521.06" cy="376.33" rx="0.89" ry="0.62" transform="translate(77.13 841.15) rotate(-82.15)"/><ellipse class="cls-7" cx="519.14" cy="368.06" rx="0.89" ry="0.62" transform="translate(83.66 832.1) rotate(-82.15)"/><ellipse class="cls-4" cx="532.94" cy="367.95" rx="0.89" ry="0.62" transform="translate(95.7 845.68) rotate(-82.15)"/><ellipse class="cls-1" cx="530.78" cy="373.38" rx="0.89" ry="0.62" transform="translate(88.45 848.23) rotate(-82.15)"/><ellipse class="cls-7" cx="528.86" cy="365.11" rx="0.89" ry="0.62" transform="matrix(0.14, -0.99, 0.99, 0.14, 94.98, 839.18)"/><ellipse class="cls-1" cx="535.58" cy="361.93" rx="0.89" ry="0.62" transform="translate(103.93 843.1) rotate(-82.16)"/><ellipse class="cls-7" cx="533.66" cy="353.66" rx="0.89" ry="0.62" transform="translate(110.46 834.05) rotate(-82.15)"/><path class="cls-4" d="M882.58,405.29H844.93c-1,0-6.59-3-6.59-6.59V377.79c-.18-15.82,51.61-16.86,51.81,0V398.7C890.15,402.34,886.21,405.29,882.58,405.29Z"/><path class="cls-3" d="M884.52,363.61a14.51,14.51,0,0,0-5.7-.82,3.81,3.81,0,0,0,1.4-.82,5.21,5.21,0,0,1-1.05-.14,2.43,2.43,0,0,1-1-.47,1.16,1.16,0,0,1-.44-1c.07-.48.52-.87.48-1.35s-.69-.82-1-1.26a1.78,1.78,0,0,1,.18-2.15,3.66,3.66,0,0,1,1.16-.91,4.34,4.34,0,0,0-2.29,0,2.55,2.55,0,0,0,.91-2.64,3.87,3.87,0,0,0-2.67-2.47,11.41,11.41,0,0,0-3.77-.31c1.07-.33.91-2,.09-2.78s-2-1.09-2.77-1.9-.71-2.55.4-2.69l-.14-.4a4.29,4.29,0,0,0-5.52,2.52,4,4,0,0,0-.17.59c-.21,1.27.17,2.68-.47,3.8-.81,1.43-2.79,1.59-4.43,1.43a6.36,6.36,0,0,0-4.75.65,2.81,2.81,0,0,0,1.87,5,13.17,13.17,0,0,0-3.19.42l1,.39a1.6,1.6,0,0,1,.61.34.57.57,0,0,1,.13.64c-.16.29-.57.28-.9.23l-2.18-.33a.83.83,0,1,1-.53,1.57.92.92,0,0,1-.3-.18,3.21,3.21,0,0,1,.54.88,1.09,1.09,0,0,1-.11,1,1.42,1.42,0,0,1-1.62.2l-.54-.22c0,.06,0,.12,0,.18a3,3,0,0,0,1.29,2.07,3.92,3.92,0,0,0-2.73,6.23,7.28,7.28,0,0,0-3.51-.58,2.45,2.45,0,0,0-2.14,2.45c.19,1.52,2.08,2.08,3.6,2.27a147.48,147.48,0,0,0,36.06,0,13.2,13.2,0,0,0,4.7-1.2A4.84,4.84,0,0,0,887.7,368,4.92,4.92,0,0,0,884.52,363.61Z"/><path class="cls-5" d="M893.41,381.24a2.6,2.6,0,0,0-2.54-2c-1.16,0-2.19.86-3.33.68-.94-.15-1.69-1-2.63-.85s-1.34,1-2,1.42h-1.66c-.65-.51-1-1.54-1.87-1.83-1.35-.44-2.44,1.09-3.86,1.36a4.1,4.1,0,0,1-2.38-.46,7.12,7.12,0,0,0-2.29-.77,1.9,1.9,0,0,0-1.85.81c0-.43-.52-.86-1.09-.88a3.59,3.59,0,0,0-1.8.55,3.37,3.37,0,0,1-1.8.52c-1.42-.13-2.12-1.78-3.54-1.8-1.79,0-2.51,2.53-4.28,2.31-.93-.11-1.42-.95-2.25-1.3a4.7,4.7,0,0,0-2.68,0l-4.19.78a7.27,7.27,0,0,1-3.76,0c-.9-.32-1.78-1-2.7-.76s-1.21,1.14-2.06,1.18a3.85,3.85,0,0,1-1.55-.52,2.36,2.36,0,0,0-2.56.64,14.59,14.59,0,0,0-.23,5.85,5.68,5.68,0,0,0,.1,1.23l4.22,16.88c.49,2.59,1.77,4.46,4.41,4.46h41a5.5,5.5,0,0,0,5.4-4.46l4.22-16.88a.59.59,0,0,1,0-.13A23.41,23.41,0,0,0,893.41,381.24Z"/><path class="cls-6" d="M843.28,380l.82,10.65c.28,3.55-.13,7.06.15,10.61.15,2,1,4,1.14,6,0,.23.38.23.37,0l-.82-10.66L844.12,386l-.47-6C843.64,379.73,843.27,379.73,843.28,380Z"/><path class="cls-6" d="M850.4,380.39l.32,10.5.32,10.5.18,5.89c0,.24.38.24.37,0l-.32-10.5-.32-10.5-.18-5.89A.19.19,0,0,0,850.4,380.39Z"/><path class="cls-6" d="M857.3,381l-.09,10.14-.1,10.09-.06,5.72a.2.2,0,0,0,.2.18.18.18,0,0,0,.17-.18l.1-10.15.1-10.08,0-5.72a.19.19,0,0,0-.19-.18A.19.19,0,0,0,857.3,381Z"/><path class="cls-6" d="M862.51,380.71l.21,10.27.2,10.21L863,407a.18.18,0,0,0,.19.18.18.18,0,0,0,.18-.18l-.2-10.27-.2-10.21-.12-5.78a.19.19,0,0,0-.19-.18A.19.19,0,0,0,862.51,380.71Z"/><path class="cls-6" d="M870.11,380.29l.23,10.54.23,10.55.13,5.9a.19.19,0,0,0,.19.18.18.18,0,0,0,.18-.18l-.23-10.54-.23-10.55-.13-5.9a.19.19,0,0,0-.37,0Z"/><path class="cls-6" d="M876.41,380.6l.81,10.63.8,10.6.45,6c0,.23.39.24.37,0l-.8-10.63-.81-10.59-.45-6C876.76,380.37,876.39,380.37,876.41,380.6Z"/><path class="cls-6" d="M883.42,381.84l.48,9.73c.17,3.24-.66,6.48-.5,9.72l.28,5.46c0,.24.38.24.37,0-.17-3.24.66-6.48.5-9.72l-.49-9.73-.27-5.46C883.78,381.61,883.41,381.61,883.42,381.84Z"/><ellipse class="cls-4" cx="862.03" cy="354.22" rx="1.42" ry="0.98"/><ellipse class="cls-1" cx="871.01" cy="356.43" rx="1.42" ry="0.98"/><ellipse class="cls-7" cx="858.46" cy="361.23" rx="1.42" ry="0.98"/><ellipse class="cls-4" cx="870.16" cy="362.89" rx="0.89" ry="0.62"/><ellipse class="cls-1" cx="875.84" cy="364.29" rx="0.89" ry="0.62"/><ellipse class="cls-7" cx="867.91" cy="367.33" rx="0.89" ry="0.62"/><ellipse class="cls-4" cx="878.53" cy="366.34" rx="0.89" ry="0.62"/><ellipse class="cls-1" cx="884.21" cy="367.74" rx="0.89" ry="0.62"/><ellipse class="cls-7" cx="876.27" cy="370.77" rx="0.89" ry="0.62"/><ellipse class="cls-4" cx="854.86" cy="363.59" rx="0.89" ry="0.62" transform="translate(377.98 1160.82) rotate(-82.15)"/><ellipse class="cls-1" cx="852.7" cy="369.03" rx="0.89" ry="0.62" transform="translate(370.74 1163.37) rotate(-82.15)"/><ellipse class="cls-7" cx="850.78" cy="360.76" rx="0.89" ry="0.62" transform="translate(377.27 1154.33) rotate(-82.15)"/><ellipse class="cls-4" cx="864.58" cy="360.64" rx="0.89" ry="0.62" transform="translate(389.3 1167.9) rotate(-82.15)"/><ellipse class="cls-1" cx="862.42" cy="366.07" rx="0.89" ry="0.62" transform="translate(382.06 1170.45) rotate(-82.15)"/><ellipse class="cls-7" cx="860.5" cy="357.8" rx="0.89" ry="0.62" transform="translate(388.59 1161.41) rotate(-82.15)"/><ellipse class="cls-1" cx="867.21" cy="354.63" rx="0.89" ry="0.62" transform="translate(397.54 1165.32) rotate(-82.16)"/><ellipse class="cls-7" cx="865.3" cy="346.36" rx="0.89" ry="0.62" transform="translate(404.07 1156.28) rotate(-82.15)"/></g></svg>