<svg id="Layer_1" data-name="Layer 1" xmlns="http://www.w3.org/2000/svg" viewBox="0 0 100 100"><defs><style>.cls-1{fill:#1e1a34;}.cls-2{fill:none;stroke:#1e1a34;stroke-miterlimit:10;stroke-width:2px;}</style></defs><path class="cls-1" d="M24.51,50A3.49,3.49,0,0,1,28,46.51H69.91a3.49,3.49,0,1,1,0,7H28A3.49,3.49,0,0,1,24.51,50Z"/><path class="cls-1" d="M50,68.51A3.47,3.47,0,0,1,51,66l16-16L51,34A3.49,3.49,0,0,1,56,29L74.47,47.53a3.5,3.5,0,0,1,0,4.94L56,71a3.49,3.49,0,0,1-6-2.47Z"/><circle class="cls-2" cx="50" cy="50" r="48"/></svg>