<svg id="Layer_1" data-name="Layer 1" xmlns="http://www.w3.org/2000/svg" viewBox="0 0 136 100"><defs><style>.cls-1{fill:#b7b7b7;}</style></defs><path class="cls-1" d="M128.07,0H7.07A7.06,7.06,0,0,0,0,7.07V84.82a7.06,7.06,0,0,0,7.07,7.07h6.44v4.38A3.73,3.73,0,0,0,17.24,100H28.7a3.73,3.73,0,0,0,3.73-3.73V91.89H102.7v4.38a3.73,3.73,0,0,0,3.73,3.73h11.46a3.73,3.73,0,0,0,3.73-3.73V91.89h6.45a7.07,7.07,0,0,0,7.07-7.07V7.07A7.07,7.07,0,0,0,128.07,0ZM16.22,75.68V16.22h89.19V75.68Zm102.7-5.41a5.41,5.41,0,1,1,5.4-5.41A5.41,5.41,0,0,1,118.92,70.27Zm0-18.92a5.41,5.41,0,1,1,5.4-5.4A5.41,5.41,0,0,1,118.92,51.35Zm0-18.92a5.41,5.41,0,1,1,5.4-5.4A5.41,5.41,0,0,1,118.92,32.43Z"/><path class="cls-1" d="M91.93,31.42c-.11.06-11.7,6.42-21.66,6.42a15.51,15.51,0,0,1-8.81-2.27c-2.75-1.47-5.87-3.14-12.81-3.14a36.56,36.56,0,0,0-22,7.39,2.7,2.7,0,0,0,1.73,4.77A2.66,2.66,0,0,0,30.1,44a31.76,31.76,0,0,1,18.55-6.13c5.58,0,7.86,1.21,10.27,2.5a20.91,20.91,0,0,0,11.35,2.9c11.38,0,23.76-6.8,24.29-7.09a2.71,2.71,0,1,0-2.63-4.73Z"/><path class="cls-1" d="M91.93,47.64c-.11.06-11.7,6.41-21.66,6.41a15.52,15.52,0,0,1-8.81-2.26c-2.75-1.47-5.87-3.14-12.81-3.14a36.66,36.66,0,0,0-22,7.38,2.7,2.7,0,0,0,3.45,4.16,31.73,31.73,0,0,1,18.55-6.14c5.58,0,7.86,1.22,10.27,2.51a20.91,20.91,0,0,0,11.35,2.9c11.38,0,23.76-6.81,24.29-7.1a2.7,2.7,0,1,0-2.63-4.72Z"/></svg>