<svg id="Layer_1" data-name="Layer 1" xmlns="http://www.w3.org/2000/svg" viewBox="0 0 231 100"><defs><style>.cls-1{fill:#b7b7b7;}</style></defs><path class="cls-1" d="M107.69,15.38H19.23A15.38,15.38,0,0,0,3.85,30.77H123.08A15.39,15.39,0,0,0,107.69,15.38Z"/><path class="cls-1" d="M213.46,26.92h-50a17.27,17.27,0,0,0-16.25,11.54H0V68.17A31.83,31.83,0,0,0,31.83,100H98.94a31.83,31.83,0,0,0,31.83-31.83V50h16.44a17.27,17.27,0,0,0,16.25,11.54h50a17.31,17.31,0,1,0,0-34.62Z"/><path class="cls-1" d="M53.85,7.69H73.08a3.85,3.85,0,0,0,0-7.69H53.85a3.85,3.85,0,1,0,0,7.69Z"/></svg>