<svg id="Layer_1" data-name="Layer 1" xmlns="http://www.w3.org/2000/svg" viewBox="0 0 76 100"><defs><style>.cls-1{fill:#b7b7b7;}</style></defs><path class="cls-1" d="M74.77,82.5c-1.25-13.75-6.25-33.75-20-48.75V27.36a3.39,3.39,0,0,0,2.49-3.26V15.42A15.42,15.42,0,0,0,41.85,0H32.7A15.42,15.42,0,0,0,17.27,15.42V24.1a3.39,3.39,0,0,0,2.51,3.26V32.5S11,40,4.77,57.49s-5,30-3.75,33.75S6,100,9.77,100H63.51S76,96.25,74.77,82.5ZM43.52,5a3.75,3.75,0,1,1-3.75,3.75A3.74,3.74,0,0,1,43.52,5ZM31,5a3.75,3.75,0,1,1-3.75,3.75A3.74,3.74,0,0,1,31,5ZM27.28,33.75V27.5h20v6.25L51,40H22.28ZM43.52,77.5H34.77v8a2,2,0,0,1-2,2H29.28a2,2,0,0,1-2-2v-31a2,2,0,0,1,2-2H43.52s8.75,1.25,8.75,13.75C52.27,76.25,43.52,77.5,43.52,77.5Z"/><path class="cls-1" d="M41,60H34.77V70H41s3.75-1.25,3.75-5S41,60,41,60Z"/></svg>