<svg xmlns="http://www.w3.org/2000/svg" xmlns:xlink="http://www.w3.org/1999/xlink" viewBox="0 0 250 250"><defs><style>.cls-1{fill:#d7e0e0;}.cls-2{mask:url(#mask);}.cls-3{fill:#d7e2e3;}.cls-4{fill:#fefefe;}</style><mask id="mask" x="0" y="0" width="250.5" height="250" maskUnits="userSpaceOnUse"><circle class="cls-1" cx="125" cy="125" r="125"/></mask></defs><g id="Layer_14" data-name="Layer 14"><g class="cls-2"><rect class="cls-3" x="0.5" width="250" height="250"/><path class="cls-4" d="M40.63,250q0-18.51,0-37a27.91,27.91,0,0,1,.4-3.86c.25-1.58.56-3.16.89-4.74a16.13,16.13,0,0,1,.58-1.74c.3-.88.57-1.77.92-2.63.58-1.44,1.16-2.89,1.85-4.28a48.73,48.73,0,0,1,2.45-4.42c1.09-1.7,2.26-3.35,3.46-5,.73-1,1.55-1.94,2.36-2.87s1.61-1.79,2.44-2.65,1.78-1.8,2.68-2.68a8.35,8.35,0,0,1,.82-.65c.11-.09.22-.17.31-.26a36.12,36.12,0,0,1,5.14-4.1c2.2-1.54,4.4-3.08,6.69-4.48,1.74-1.07,3.6-2,5.42-2.89,1.31-.67,2.62-1.39,4-1.95,2.16-.89,4.36-1.72,6.56-2.5s4.44-1.6,6.71-2.21c3.07-.83,6.18-1.55,9.3-2.19,2-.41,4.07-.58,6.11-.87,2.92-.41,5.89-.45,8.81-.76a97.44,97.44,0,0,1,10.1-.25c2,0,4,.25,6,.42,1.62.14,3.25.28,4.86.49,1.83.24,3.65.53,5.47.82,1.07.17,2.14.35,3.2.58,1.46.32,2.91.69,4.37,1l1.81.44a87.11,87.11,0,0,1,13.88,4.85c2.14.94,4.24,2,6.36,2.94.79.37,1.58.74,2.33,1.18,1.21.71,2.39,1.46,3.55,2.24,1.74,1.17,3.49,2.35,5.18,3.59a48.4,48.4,0,0,1,4.19,3.35c2.08,1.9,4.06,3.92,6.08,5.89.34.33.53.73,1,1s.66.89,1,1.34,1,1.13,1.44,1.74a21.23,21.23,0,0,1,1.23,1.9c1.32,2.2,2.76,4.35,3.9,6.64a63.89,63.89,0,0,1,2.72,6.7,34.12,34.12,0,0,1,1.21,4.2c.28,1.24.37,2.53.57,3.79.65,4,.31,8.09.34,12.14.05,9.23,0,18.47,0,27.7Z"/><path class="cls-4" d="M125,143.8a42.86,42.86,0,0,1-27.5-9.35c-10-7.84-16-18.25-17.29-31A43.6,43.6,0,0,1,91.13,69a43.2,43.2,0,0,1,33.46-15.23A44.16,44.16,0,0,1,142,57.1a45.94,45.94,0,0,1,14.81,9.82,44.45,44.45,0,0,1,9.78,14.67A43.33,43.33,0,0,1,170,99a43.88,43.88,0,0,1-13.28,31.68C148,139.39,137.24,143.58,125,143.8Z"/></g></g></svg>