<svg xmlns="http://www.w3.org/2000/svg" xmlns:xlink="http://www.w3.org/1999/xlink" viewBox="0 0 487 1433"><defs><style>.cls-1{fill:url(#linear-gradient);}.cls-2,.cls-3{fill:#fff;}.cls-3{opacity:0.2;}.cls-4{fill:url(#linear-gradient-2);}.cls-5{fill:url(#linear-gradient-3);}.cls-6{fill:url(#linear-gradient-4);}.cls-7{fill:url(#linear-gradient-5);}</style><linearGradient id="linear-gradient" x1="254" y1="-0.14" x2="254" y2="851.06" gradientUnits="userSpaceOnUse"><stop offset="0" stop-color="#ff2a71"/><stop offset="1" stop-color="#ff9f8d"/></linearGradient><linearGradient id="linear-gradient-2" x1="152.3" y1="791.15" x2="157.45" y2="1009.73" xlink:href="#linear-gradient"/><linearGradient id="linear-gradient-3" x1="33.5" y1="1025.86" x2="33.5" y2="606.64" gradientUnits="userSpaceOnUse"><stop offset="0" stop-color="#fdadaf"/><stop offset="1" stop-color="#e8a099"/></linearGradient><linearGradient id="linear-gradient-4" x1="259" y1="834.71" x2="259" y2="1251.29" xlink:href="#linear-gradient"/><linearGradient id="linear-gradient-5" x1="262.49" y1="331.36" x2="275.35" y2="2095.36" xlink:href="#linear-gradient"/></defs><g id="BG"><rect class="cls-1" x="-32" y="-41" width="572" height="1495"/></g><g id="Stars"><path class="cls-2" d="M303.71,793.36a1.5,1.5,0,0,0,0-3,1.5,1.5,0,0,0,0,3Z"/><path class="cls-2" d="M69.71,587.64a1.5,1.5,0,0,0,0-3,1.5,1.5,0,0,0,0,3Z"/><path class="cls-2" d="M283.14,453.93a1.5,1.5,0,0,0,0-3,1.5,1.5,0,0,0,0,3Z"/><path class="cls-2" d="M427.14,387.07a1.5,1.5,0,0,0,0-3,1.5,1.5,0,0,0,0,3Z"/><path class="cls-2" d="M352.57,158.21a1.5,1.5,0,0,0,0-3,1.5,1.5,0,0,0,0,3Z"/><path class="cls-2" d="M368,83.64a1.5,1.5,0,0,0,0-3,1.5,1.5,0,0,0,0,3Z"/><path class="cls-2" d="M82.57,57.93a1.5,1.5,0,0,0,0-3,1.5,1.5,0,0,0,0,3Z"/><path class="cls-2" d="M249.71,129.93a1.5,1.5,0,0,0,0-3,1.5,1.5,0,0,0,0,3Z"/><path class="cls-2" d="M442.57,209.64a1.5,1.5,0,0,0,0-3,1.5,1.5,0,0,0,0,3Z"/><path class="cls-2" d="M95.43,363.93a1.5,1.5,0,0,0,0-3,1.5,1.5,0,0,0,0,3Z"/><path class="cls-2" d="M80,513.07a1.5,1.5,0,0,0,0-3,1.5,1.5,0,0,0,0,3Z"/><path class="cls-2" d="M440,762.5a1.5,1.5,0,0,0,0-3,1.5,1.5,0,0,0,0,3Z"/><path class="cls-2" d="M56.86,628.79a1.5,1.5,0,0,0,0-3,1.5,1.5,0,0,0,0,3Z"/><path class="cls-2" d="M69.71,811.36a1.5,1.5,0,0,0,0-3,1.5,1.5,0,0,0,0,3Z"/><path class="cls-2" d="M442.57,587.64a1.5,1.5,0,0,0,0-3,1.5,1.5,0,0,0,0,3Z"/><path class="cls-2" d="M280.57,644.21a1.5,1.5,0,0,0,0-3,1.5,1.5,0,0,0,0,3Z"/></g><g id="Clouds"><path class="cls-3" d="M232.33,681H852.67s32,1,9-13-57-43-169.1-26c0,0,9-107.06-104.05-52,0,0,25-67-41-112.06S353.4,453.87,291.36,617c0,0-30-43-66-9S232.33,681,232.33,681Z"/><path class="cls-3" d="M-63.25,267H312.66s19.4.61,5.46-7.88S283.56,233,215.65,243.34c0,0,5.46-64.87-63.06-31.52,0,0,15.16-40.63-24.86-67.91S10.11,129.36-27.48,228.19c0,0-18.19-26.07-40-5.46S-63.25,267-63.25,267Z"/></g><g id="_4" data-name="4"><path class="cls-4" d="M524,743s-54-13-55,25,0,212,0,212H352V904H286v44H266V826s4-49-40-49-39,54-39,54H47v29H-8v11H-72V812H-91l-31-174-20,167h-24s3-80-33-127c0,0-53,66-36,131h-65v542L28,1505l496-31,93-716Z"/></g><g id="_3" data-name="3"><path class="cls-5" d="M221,898a22,22,0,1,0-20.76-29.29,187.13,187.13,0,0,0-12.69-53.13A22,22,0,1,0,180,799v.11a188.92,188.92,0,0,0-26.51-38.57A22.4,22.4,0,0,0,158,761a22,22,0,1,0-22-22,21.58,21.58,0,0,0,.5,4.65,189.07,189.07,0,0,0-41.34-27.53A22,22,0,1,0,69.92,706a187.24,187.24,0,0,0-40.58-8.19A22,22,0,1,0-8.5,682.5a21.88,21.88,0,0,0,6,15.1c-97,7.66-173.51,89-173.51,187.9a187.88,187.88,0,0,0,54.76,132.7l-.78.78,3.54,3.54.81-.81A187.81,187.81,0,0,0,12.5,1074a187.54,187.54,0,0,0,69.92-13.45A22,22,0,1,0,99,1053h-.11a189.28,189.28,0,0,0,44.74-32.22,22,22,0,1,0,14.45-15.66A188.85,188.85,0,0,0,187,956.74c0,.09,0,.17,0,.26a22,22,0,1,0,5-14,188,188,0,0,0,9-57.52v-.35A22,22,0,0,0,221,898ZM111.69,980.65A137.06,137.06,0,0,0,151,888h45a182.83,182.83,0,0,1-51.78,125.15ZM83.56,716.32a184.15,184.15,0,0,1,58.11,39l-31.51,31.52A137.07,137.07,0,0,0,16,747V704.35a21.62,21.62,0,0,0,7.07-2,182.56,182.56,0,0,1,55.16,11.87A21.94,21.94,0,0,0,83.56,716.32ZM36.81,883a23.92,23.92,0,0,0-4.51-11.26l77.81-77.82A132,132,0,0,1,146,883Zm-7.89-15A23.88,23.88,0,0,0,16,862.19V752a132.07,132.07,0,0,1,90.62,38.31Zm-17.92-6a23.87,23.87,0,0,0-12.83,5l-77.29-77.29A132,132,0,0,1,11,752Zm0-157.74V747a137,137,0,0,0-93.65,39.28l-32.5-32.5A182.89,182.89,0,0,1,3.73,702.21,21.85,21.85,0,0,0,11,704.35ZM-5.42,870.62A23.91,23.91,0,0,0-10.81,883H-119a132,132,0,0,1,36.35-89.59ZM-10.91,888a23.88,23.88,0,0,0,6,13.92l-75.71,75.7A132.08,132.08,0,0,1-118.95,888Zm9.65,17.3A23.86,23.86,0,0,0,11,909.91V1017a132.08,132.08,0,0,1-88.08-35.86ZM16,909.81a23.91,23.91,0,0,0,12.38-5.39l76.21,76.21A132,132,0,0,1,16,1017Zm15.86-9a23.87,23.87,0,0,0,5-12.83H146a132,132,0,0,1-37.8,89.12ZM151,883a137,137,0,0,0-37.33-92.61l31.53-31.53A182.91,182.91,0,0,1,196,883Zm-322,2.5a182.89,182.89,0,0,1,52.31-128.16l32.53,32.53A137,137,0,0,0-124,883h-38.77v5H-124a137.11,137.11,0,0,0,39.77,93.16l-33.51,33.51A182.89,182.89,0,0,1-171,885.5Zm56.86,132.67,33.53-33.52A137,137,0,0,0,11,1022v46.53h5V1022a137.05,137.05,0,0,0,92.13-37.8l32.53,32.52A182.89,182.89,0,0,1,12.5,1069,182.83,182.83,0,0,1-114.14,1018.17Z"/></g><g id="_2" data-name="2"><path class="cls-6" d="M497,913H482l-18-74-33,70H405v21H347v35H316v34H266V988H221v44H203V990H187s-1-17-17-17-17,16-17,16H132v5H90L46,957,8,985V965H-22v331H540V938Z"/></g><g id="_1" data-name="1"><path class="cls-7" d="M593,1314s-29-55-67-89-45-103-45-103v-84H451c-31-46-29-134-29-134h21V893H406c-13-58-30-424-30-424h15c-25-41-29-141-29-141-2,111-34,145-34,145h19c-3,185-33,421-33,421H278v12h13c0,21,11,31,11,31l-29,107H244v91c-15.76,38-53.09,95.46-73,125H142v-87h5v-17h-5v-83.67c13.73-5.46,16-21.33,16-21.33H142v-32H-54v253H0v182H511V1304.28l4-.28ZM415,1079H396v-33C413,1052,415,1079,415,1079ZM339,932h47l17,105H321Zm45,112v36H339v-36Zm-57,2v33H308S310,1052,327,1046Zm-29,78s23-12,59-12a188.57,188.57,0,0,1,65,12l51.22,136H242.69ZM69,1156v-23h62v23Zm59,55.5V1249H79v-37.5a24.5,24.5,0,0,1,49,0ZM111,1032h24v24H111Zm-31,0h24v24H80Zm-31,0H73v24H49Zm-31,0H42v24H18Zm-31,0H11v24H-13Zm-31,0h24v24H-44Zm17,230v-94a44,44,0,0,1,44-44,44,44,0,0,1,44,44v92H0v2Z"/></g><g id="Layer_14" data-name="Layer 14"><path class="cls-2" d="M61,1200V1032h43.68v114.33h16.82v-100.9h40.29v100.9h37V1200Z"/><path class="cls-2" d="M60.89,883.81c-.31-28.4,23.58-52.5,52.09-52.09A50.18,50.18,0,0,1,141.17,840,51.62,51.62,0,0,1,160,861.76l38.66-30v57.22l-33.63,25.94v48H198.7v53.73H60.89Zm40.29,79.06h23.49V897.35A11.74,11.74,0,0,0,113,885.55a11.73,11.73,0,0,0-11.8,11.8Z"/><path class="cls-2" d="M61,753.69V689.81L198.8,615.88v60.49l-23.58,10.87v69l23.58,10.87v60.5Zm80.59-13V702.83l-40.7,18.87Z"/><path class="cls-2" d="M60.78,477.35V423.51H198.6V484l-84.19,74H198.6v53.73H60.78V537.84l73-60.49Z"/><path class="cls-2" d="M141.48,216.49C188,219.87,202,260.68,202,310.31c-.1,51.68-15.07,94.33-67.27,94.13h-10c-52.09.2-67.07-42.45-67.27-94.13.1-49.63,14.05-90.44,60.5-93.82v55.06c-13.54,5-16.72,20.3-16.72,38.76.31,21.94,4.21,40.6,26.87,40.3h3.38c22.46.3,26.56-18.36,26.87-40.3,0-18.46-3.28-33.84-16.82-38.76Z"/><path class="cls-2" d="M61,200.49V39.2H96.26V146.76H113.9V39.2h31.89V146.76h17.63V39.2H198.8V200.49Z"/></g></svg>