<svg xmlns="http://www.w3.org/2000/svg" xmlns:xlink="http://www.w3.org/1999/xlink" viewBox="0 0 487 1433"><defs><style>.cls-1{fill:url(#linear-gradient);}.cls-2,.cls-3{fill:#fff;}.cls-3{opacity:0.2;}.cls-4{fill:url(#linear-gradient-2);}.cls-5{fill:url(#linear-gradient-3);}.cls-6{fill:url(#linear-gradient-4);}.cls-7{fill:url(#linear-gradient-5);}.cls-8{fill:url(#linear-gradient-6);}.cls-9{fill:url(#linear-gradient-7);}.cls-10{fill:url(#linear-gradient-8);}.cls-11{fill:url(#linear-gradient-9);}.cls-12{fill:url(#linear-gradient-10);}</style><linearGradient id="linear-gradient" x1="265.5" y1="1031.86" x2="265.5" y2="-32.41" gradientUnits="userSpaceOnUse"><stop offset="0" stop-color="#f4e4b1"/><stop offset="0.32" stop-color="#96cabe"/><stop offset="0.73" stop-color="#03a7d7"/><stop offset="0.92" stop-color="#00508f"/><stop offset="1" stop-color="#004485"/></linearGradient><linearGradient id="linear-gradient-2" x1="222.5" y1="773.86" x2="222.5" y2="1108.94" gradientUnits="userSpaceOnUse"><stop offset="0" stop-color="#7abcae"/><stop offset="1" stop-color="#fceca4"/></linearGradient><linearGradient id="linear-gradient-3" x1="169.5" y1="1266.29" x2="169.5" y2="980.75" gradientUnits="userSpaceOnUse"><stop offset="0" stop-color="#e6d497"/><stop offset="1" stop-color="#2dbbd4"/></linearGradient><linearGradient id="linear-gradient-4" x1="248.5" y1="1448.43" x2="248.5" y2="1004.68" gradientUnits="userSpaceOnUse"><stop offset="0" stop-color="#027a93"/><stop offset="1" stop-color="#001e30"/></linearGradient><linearGradient id="linear-gradient-5" x1="302.44" y1="1448.43" x2="302.44" y2="1004.68" xlink:href="#linear-gradient-4"/><linearGradient id="linear-gradient-6" x1="265.39" y1="1448.43" x2="265.39" y2="1004.68" xlink:href="#linear-gradient-4"/><linearGradient id="linear-gradient-7" x1="299.85" y1="1448.43" x2="299.85" y2="1004.68" xlink:href="#linear-gradient-4"/><linearGradient id="linear-gradient-8" x1="376.14" y1="1448.43" x2="376.14" y2="1004.68" xlink:href="#linear-gradient-4"/><linearGradient id="linear-gradient-9" x1="360.21" y1="1448.43" x2="360.21" y2="1004.68" xlink:href="#linear-gradient-4"/><linearGradient id="linear-gradient-10" x1="395.12" y1="1448.43" x2="395.12" y2="1004.68" xlink:href="#linear-gradient-4"/></defs><g id="BG"><rect class="cls-1" x="-19" y="-41" width="569" height="1546"/></g><g id="Stars"><path class="cls-2" d="M329.29,621.93a1.5,1.5,0,0,0,0-3,1.5,1.5,0,0,0,0,3Z"/><path class="cls-2" d="M425.29,745.36a1.5,1.5,0,0,0,0-3,1.5,1.5,0,0,0,0,3Z"/><path class="cls-2" d="M340.86,891.07a1.5,1.5,0,0,0,0-3,1.5,1.5,0,0,0,0,3Z"/><path class="cls-2" d="M182.71,830.64a1.5,1.5,0,0,0,0-3,1.5,1.5,0,0,0,0,3Z"/><path class="cls-2" d="M78.57,740.64a1.5,1.5,0,0,0,0-3,1.5,1.5,0,0,0,0,3Z"/><path class="cls-2" d="M324.14,731.64a1.5,1.5,0,0,0,0-3,1.5,1.5,0,0,0,0,3Z"/><path class="cls-2" d="M225.14,659.64a1.5,1.5,0,0,0,0-3,1.5,1.5,0,0,0,0,3Z"/><path class="cls-2" d="M106.86,594.07a1.5,1.5,0,0,0,0-3,1.5,1.5,0,0,0,0,3Z"/><path class="cls-2" d="M418,523.36a1.5,1.5,0,0,0,0-3,1.5,1.5,0,0,0,0,3Z"/><path class="cls-2" d="M240.57,500.21a1.5,1.5,0,0,0,0-3,1.5,1.5,0,0,0,0,3Z"/><path class="cls-2" d="M103,442.36a1.5,1.5,0,0,0,0-3,1.5,1.5,0,0,0,0,3Z"/><path class="cls-2" d="M76,299.64a1.5,1.5,0,0,0,0-3,1.5,1.5,0,0,0,0,3Z"/><path class="cls-2" d="M424.43,357.5a1.5,1.5,0,0,0,0-3,1.5,1.5,0,0,0,0,3Z"/><path class="cls-2" d="M303.57,321.5a1.5,1.5,0,0,0,0-3,1.5,1.5,0,0,0,0,3Z"/><path class="cls-2" d="M402.57,124.79a1.5,1.5,0,0,0,0-3,1.5,1.5,0,0,0,0,3Z"/><path class="cls-2" d="M182.71,135.07a1.5,1.5,0,0,0,0-3,1.5,1.5,0,0,0,0,3Z"/><path class="cls-2" d="M112,66.93a1.5,1.5,0,0,0,0-3,1.5,1.5,0,0,0,0,3Z"/><path class="cls-2" d="M249.57,209.64a1.5,1.5,0,0,0,0-3,1.5,1.5,0,0,0,0,3Z"/><path class="cls-2" d="M247,34.79a1.5,1.5,0,0,0,0-3,1.5,1.5,0,0,0,0,3Z"/><path class="cls-2" d="M55.43,180.07a1.5,1.5,0,0,0,0-3,1.5,1.5,0,0,0,0,3Z"/><path class="cls-2" d="M459.14,28.36a1.5,1.5,0,0,0,0-3,1.5,1.5,0,0,0,0,3Z"/></g><g id="Clouds"><path class="cls-3" d="M-98.15,869H392.3s25.31.79,7.12-10.28-45.09-34-133.69-20.57c0,0,7.12-84.64-82.26-41.14,0,0,19.77-53-32.44-88.59s-153.46-19-202.51,110c0,0-23.73-34-52.21-7.12S-98.15,869-98.15,869Z"/><path class="cls-3" d="M318.24,144H658.93s17.59.55,5-7.14S632.56,113.23,571,122.57c0,0,5-58.8-57.15-28.57,0,0,13.74-36.82-22.52-61.55S384.73,19.26,350.66,108.83c0,0-16.48-23.63-36.26-4.94S318.24,144,318.24,144Z"/><path class="cls-3" d="M39.24,447H379.93s17.59.55,4.95-7.14S353.56,416.23,292,425.57c0,0,4.95-58.8-57.15-28.57,0,0,13.74-36.82-22.52-61.55S105.73,322.26,71.66,411.83c0,0-16.48-23.63-36.26-4.94S39.24,447,39.24,447Z"/></g><g id="_3" data-name="3"><polygon class="cls-4" points="-11 863 31 863 31 833 94 833 94 959 115 959 115 890 168 890 168 930 185 930 185 908 219 908 219 999 233 999 233 935 250 935 250 889 302 889 302 937 353 937 353 953 376 953 376 864 447 864 447 830 505 830 505 1280 -60 1280 -11 863"/></g><g id="_2" data-name="2"><path class="cls-5" d="M374,1119H307v-46c4,0,4-11,4-11h-5v-39c4,0,5-10,5-10h-7V979s2-6,2-10-2-6-4-9a11.91,11.91,0,0,1-2-6c0,4-7,9-7,15a17.94,17.94,0,0,0,3,10v35h-5a11.08,11.08,0,0,0,5,9v40h-5c0,7,4,10,4,10v46H278.84l-.75-27.82A8,8,0,0,0,281,1085v-1h-3.11l-.89-33.08a8,8,0,0,0,4-6.92v-1h-4.22l-.77-28.7c3-1.63,3-5.72,3-7.3q0-3-3-6c-2-2-3-6-3-6,0,2-2,4-3,6s-3,3-3,6c0,2.38,0,6,3,7.4l-.51,28.6H265v1a8,8,0,0,0,4.33,7.1l-.59,32.9H265v1a8,8,0,0,0,3.6,6.68l-.49,27.32H256v-59H231v-10h-6.06v-14.13c-1.46-6.39-8.19-10.49-10.94-11.92v-7h-2v6.81c-11.29,6.14-10.94,12.8-10.94,12.8V1050H198v-26.14a4,4,0,1,0-2,0V1035h-9v-28c-4.19-18.43-24.52-29.84-31-33.06V954h-4v20.07c-30.94,16.72-30,34.93-30,34.93v26h-7v-12.14a4,4,0,1,0-2,0V1050h-4.06v-15.13c-1.46-6.39-8.19-10.49-10.94-11.92v-6H96v5.81c-11.29,6.14-10.94,12.8-10.94,12.8V1050H80v10H41.39l-.18-8.36a6.17,6.17,0,0,0,4.92-6V1043H41l-.53-24.38h6.21v-2.79H41.3c2.88-1.6,2.89-5.57,2.89-7.11q0-2.94-2.92-5.86c-2-2-2.93-5.86-2.93-5.86,0,2-2,3.91-2.93,5.86s-2.93,2.93-2.93,5.86c0,2.35,0,6,3.05,7.29L35,1043h-4.4v2.6a6.16,6.16,0,0,0,4.22,5.85l-.19,8.55H15.74L15,1024.15a9.77,9.77,0,0,0,5.81-8.93V1014h-6l-.64-30H23v-4H15.25c4.13-2.3,4.15-8,4.15-10.2q0-4.2-4.2-8.4C12.4,958.6,11,953,11,953c0,2.8-2.8,5.6-4.2,8.4s-4.2,4.2-4.2,8.4c0,3.38,0,8.55,4.37,10.46L6.25,1014h-5v1.22A9.77,9.77,0,0,0,6,1023.64L5.26,1060H-35v226H256v-20H374ZM89,1055v-1h5v4H89Zm18,0v3h-5v-4h5Zm-6,0v3H95v-6h6Zm107,1v-5h6v8h-6Zm12,0v3h-4v-4h4Zm-19-2h5v5h-5Z"/></g><g id="_1" data-name="1"><path class="cls-2" d="M48.78,761.31H186.6V815H48.78Z"/><path class="cls-2" d="M48.78,598.38V544.54H186.6V605l-84.19,74H186.6V732.8H48.78V658.87l73-60.49Z"/><path class="cls-2" d="M49,390.63c-.51-37.84,31.27-65.93,68.9-65.62,37.43-.31,69.42,27.78,68.91,65.62V513.27H49Zm43.68,10.05v58.86h50.45V400.68c0-13.95-11.38-21.84-25.23-21.84S92.67,386.73,92.67,400.68Z"/><path class="cls-2" d="M48.78,255.38H186.6v53.73H48.78Z"/><path class="cls-2" d="M49,177.35V113.47L186.8,39.54V100L163.22,110.9v69l23.58,10.87v60.5Zm80.59-13V126.49l-40.7,18.87Z"/><path class="cls-6" d="M502,1258.39l76-5.39-16-177c-14-50-73-83-73-83,2,7-1,18-1,18-8-13-26-25-26-25-11,10-21,44-21,44v112c1,.54,2.38,1.36,4.16,2.44,2.33-9.09,16.74-63.72,35-92.93l.24-.38.45-.08c.51-.09,12.81-1.79,33.94,24.36l-1.56,1.26c-18.09-22.41-29.38-23.66-31.65-23.66-18.44,29.84-32.92,85.78-34.62,92.53,17.21,10.74,60.08,41.32,85.94,93l-1.78.9c-30.92-61.84-86.33-93.17-92.09-96.3-50.17,29.79-83.22,85.15-88.74,94.85h9c3.33-4.06,33.38-38.93,78.78-38,47.86,1,84.33,37.93,84.7,38.3l-1.44,1.4c-.35-.37-36.28-36.72-83.3-37.7l-1.77,0c-40.41,0-68.08,28.84-74.35,36H499v2H193v-2l-1,2v25H182v-33h5v-2h-4v-11a14,14,0,0,0-9-10v-4h-4v4c-5,0-11,10-11,10v11h-3v2h4v33H144.93L142,1134H124l-3.91,131H101.85L99,1246H97v-45a12.89,12.89,0,0,0,8-2.91v.91h4v-2h2v-8h2v-2a6,6,0,0,0-12,0v2h2v6H97v-4H95v4H90v-6h2v-2a6,6,0,0,0-12,0v2h2v8h2v2h4v-.66a22,22,0,0,0,7,2.49V1246H94l-2.85,19H74V1127s4,0,4-7h2v-5H74v-15H68v-12H59v-33H56v5H35v-11a49.8,49.8,0,0,1-17-8H-8l-39,224H-81v176H522V1265H502ZM-19,1172.5a24.5,24.5,0,0,1,49,0V1265H-19Z"/><path class="cls-7" d="M340.44,1238H348a293.77,293.77,0,0,1,19.4-29.54c-39.39-29.78-73.41-41.13-95.06-45.39a148,148,0,0,0-19.26-2.54c-.05.31-.06.47-.06.47-3.24-.36-6-.59-8.32-.72-3,0-5.43.16-7.17.31C250.47,1167,301.61,1194.15,340.44,1238Z"/><path class="cls-8" d="M233.58,1160.91l-.56-.26a3.88,3.88,0,0,0-1,.35l-39,77H337.76C293.57,1188.79,234.18,1161.19,233.58,1160.91Z"/><path class="cls-9" d="M321.62,1177.88c.68-2.61,2.52-9.49,5.45-18.75.06-4.15,1.28-69.37,19.22-95.21a144.51,144.51,0,0,0-23.93,11c-.24.7-.36,1.08-.36,1.08-56,40.72-66.64,73.51-68.58,82.53a152.27,152.27,0,0,1,19.16,2.56A203.39,203.39,0,0,1,321.62,1177.88Z"/><path class="cls-10" d="M393.8,1057.13c-41.74,14.64-67.9,112.16-70.34,121.64a280.62,280.62,0,0,1,45.11,28.08c14-18.73,34.63-42.13,60.25-59.57C410.93,1075,396.24,1059.31,393.8,1057.13Z"/><path class="cls-11" d="M351.82,1060.18l-2.05,2.46c-15.93,19.12-19.64,70.76-20.47,89.62,2.93-8.8,6.63-19,11.05-29.39q4.09-9.63,8.31-17.93l-.64-.12c.09-.52,9.28-49.23,43.3-89.72-2-12,5.68-23.1,5.68-23.1l-.71.38c-48.79,25.93-67.9,66.86-72.87,79.66a133.66,133.66,0,0,1,25.31-11Z"/><path class="cls-12" d="M393.85,1015.19c-1.17,1.74-1.85,2.81-1.85,2.81s-.08-.26-.11-.39l0,0c-26.68,32.34-37.59,69.6-40.8,82.73,13.42-25.09,27.71-40.28,42.61-45.25l.46-.15.41.26c.66.44,16.29,11.46,36,90.93,2.58-1.71,5.22-3.37,7.9-4.95l.48-.28,0,0V1023h.16A101.16,101.16,0,0,0,419,986c-6.38,4.06-14.42,14.15-20.07,21.93l.79.76C397.69,1010.82,395.74,1013,393.85,1015.19Z"/></g></svg>