<svg xmlns="http://www.w3.org/2000/svg" xmlns:xlink="http://www.w3.org/1999/xlink" viewBox="0 0 487 1433"><defs><style>.cls-1{fill:url(#linear-gradient);}.cls-2,.cls-3{fill:#fff;}.cls-3{opacity:0.2;}.cls-4{fill:url(#linear-gradient-2);}.cls-5{fill:url(#linear-gradient-3);}.cls-6{fill:url(#linear-gradient-4);}</style><linearGradient id="linear-gradient" x1="240.98" y1="-61.11" x2="246.12" y2="1101.18" gradientUnits="userSpaceOnUse"><stop offset="0" stop-color="#ea9281"/><stop offset="1" stop-color="#fec675"/></linearGradient><linearGradient id="linear-gradient-2" x1="249.5" y1="867.29" x2="249.5" y2="1127.43" gradientUnits="userSpaceOnUse"><stop offset="0" stop-color="#d8925c"/><stop offset="1" stop-color="#f3b27b"/></linearGradient><linearGradient id="linear-gradient-3" x1="300" y1="887.86" x2="300" y2="1330.51" gradientUnits="userSpaceOnUse"><stop offset="0" stop-color="#bd7458"/><stop offset="1" stop-color="#c06951"/></linearGradient><linearGradient id="linear-gradient-4" x1="245.5" y1="950.54" x2="245.5" y2="1590.65" gradientUnits="userSpaceOnUse"><stop offset="0" stop-color="#69254a"/><stop offset="1" stop-color="#80364e"/></linearGradient><image id="image" width="1600" height="1202" xlink:href="D:%5CDownloads%5C280295419_385685480187862_1307100918557468544_n.png"/><image id="image-2" width="612" height="229" xlink:href="D:%5CDownloads%5Cistockphoto-962621770-612x612.jpg"/></defs><g id="Layer_7" data-name="Layer 7"><use transform="translate(-845 -1548) scale(1.95)" xlink:href="#image"/><use transform="translate(-1473 -1548) scale(1.95)" xlink:href="#image"/><use transform="matrix(-4.73, 0, 0, 4.73, 705, 461)" xlink:href="#image-2"/><use transform="matrix(-4.73, 0, 0, 4.73, 1431, 468)" xlink:href="#image-2"/></g><g id="BG"><rect class="cls-1" x="-25" y="-31" width="539" height="1530"/></g><g id="Stars"><path class="cls-2" d="M391.57,899.07a1.5,1.5,0,0,0,0-3,1.5,1.5,0,0,0,0,3Z"/><path class="cls-2" d="M108.71,917.07a1.5,1.5,0,0,0,0-3,1.5,1.5,0,0,0,0,3Z"/><path class="cls-2" d="M160.14,773.07a1.5,1.5,0,0,0,0-3,1.5,1.5,0,0,0,0,3Z"/><path class="cls-2" d="M252.71,857.93a1.5,1.5,0,0,0,0-3,1.5,1.5,0,0,0,0,3Z"/><path class="cls-2" d="M371,780.79a1.5,1.5,0,0,0,0-3,1.5,1.5,0,0,0,0,3Z"/><path class="cls-2" d="M304.14,719.07a1.5,1.5,0,0,0,0-3,1.5,1.5,0,0,0,0,3Z"/><path class="cls-2" d="M77.86,675.36a1.5,1.5,0,0,0,0-3,1.5,1.5,0,0,0,0,3Z"/><path class="cls-2" d="M77.86,544.21a1.5,1.5,0,0,0,0-3,1.5,1.5,0,0,0,0,3Z"/><path class="cls-2" d="M185.86,590.5a1.5,1.5,0,0,0,0-3,1.5,1.5,0,0,0,0,3Z"/><path class="cls-2" d="M342.71,549.36a1.5,1.5,0,0,0,0-3,1.5,1.5,0,0,0,0,3Z"/><path class="cls-2" d="M455.86,652.21a1.5,1.5,0,0,0,0-3,1.5,1.5,0,0,0,0,3Z"/><path class="cls-2" d="M255.29,479.93a1.5,1.5,0,0,0,0-3,1.5,1.5,0,0,0,0,3Z"/><path class="cls-2" d="M401.86,428.5a1.5,1.5,0,0,0,0-3,1.5,1.5,0,0,0,0,3Z"/><path class="cls-2" d="M129.29,325.64a1.5,1.5,0,0,0,0-3,1.5,1.5,0,0,0,0,3Z"/><path class="cls-2" d="M62.43,449.07a1.5,1.5,0,0,0,0-3,1.5,1.5,0,0,0,0,3Z"/><path class="cls-2" d="M273.29,173.93a1.5,1.5,0,0,0,0-3,1.5,1.5,0,0,0,0,3Z"/><path class="cls-2" d="M386.43,266.5a1.5,1.5,0,0,0,0-3,1.5,1.5,0,0,0,0,3Z"/><path class="cls-2" d="M98.43,122.5a1.5,1.5,0,0,0,0-3,1.5,1.5,0,0,0,0,3Z"/><path class="cls-2" d="M345.29,86.5a1.5,1.5,0,0,0,0-3,1.5,1.5,0,0,0,0,3Z"/><path class="cls-2" d="M211.57,65.93a1.5,1.5,0,0,0,0-3,1.5,1.5,0,0,0,0,3Z"/><path class="cls-2" d="M80.43,215.07a1.5,1.5,0,0,0,0-3,1.5,1.5,0,0,0,0,3Z"/></g><g id="Clouds"><path class="cls-3" d="M140.26,339H758.73s31.92,1,9-13-56.85-42.89-168.58-25.93c0,0,9-106.74-103.74-51.87,0,0,24.94-66.84-40.9-111.73S261,112.56,199.12,275.16c0,0-29.93-42.89-65.84-9S140.26,339,140.26,339Z"/><path class="cls-3" d="M-71.67,844H202.41s14.15.44,4-5.75-25.2-19-74.71-11.49c0,0,4-47.3-46-23,0,0,11.05-29.62-18.13-49.51s-85.76-10.61-113.17,61.45c0,0-13.26-19-29.18-4S-71.67,844-71.67,844Z"/></g><g id="_3" data-name="3"><path class="cls-4" d="M-15,903H22v99l86-34V900h52v22H312V891l18-31,16,28v66h9V931h23V907h36v112h11V874s27,0,36,13v67h12V928h41v447H-15Z"/></g><g id="_2" data-name="2"><path class="cls-5" d="M431,1084v-20H412v22H340V958H327v24c-3-15-16-22-16-22-16,13-19,25-19,25V883h-9v33h-8c-5-25-41-36-41-36-31,14-37,35-37,35h-8V884H179v97h-8l-12-24-11,26h-9V958h-5v132H89v-82L44,973V947c-6-12-28-22-28-22H-13l-12,449,566,23,84-313Zm-264-3H155v-12h12Zm75-167H230V902h12Zm76,167H306v-12h12Z"/></g><g id="_1" data-name="1"><path class="cls-2" d="M60.78,767.31H198.6V821H60.78Z"/><path class="cls-2" d="M198.8,686.61H104.67v63.88H61V569h43.68v63.88H198.8Z"/><path class="cls-2" d="M61,530.75V466.87L198.8,392.94v60.5l-23.58,10.87v69l23.58,10.87v60.49Zm80.59-13V479.89l-40.7,18.87Z"/><path class="cls-2" d="M60.78,335.11h94.13V227.54H198.6v161.3H60.78Z"/><path class="cls-2" d="M110.41,159.05,61,118.65V54.87l90.75,77.31H198.8v53.73H151.74L61,263.23V199.35Z"/><path class="cls-6" d="M502,1258V1113h-7.76L498,989c-52,47-58,95-58,95v29H274v-88h-3c16-7,0-18,0-18l-18-11s-8,4-21,12,.14,17,.14,17H227v233H196v-75H158v-.07l38,.07c-3-14-23-19-23-19-9.63,6.19-13.51,12.82-15,16.35V1110h-8v25a60.13,60.13,0,0,0-30-27.31V1083h-8v23.7c-14.53,4.72-32,28.3-32,28.3v-25H72v73a35.91,35.91,0,0,0-14-18c-11,5-19,18-19,18v75H-16v186H507V1258Zm-264-83v-26h8v26Zm14-26h8v26h-8Zm203-39h17v17H455v-17Zm-18,32h8v15h-8Zm0,54h8v45h-8Zm-59-54h8v15h-8Zm0,54h8v45h-8Zm-53-54h8v15h-8Zm0,54h8v45h-8Zm-36,0h8v45h-8Zm-29-66h-8v-26h8v26Zm-22-42v-27a11,11,0,0,1,22,0v27Zm0,25v-9h8v26h-8Z"/></g></svg>