<svg xmlns="http://www.w3.org/2000/svg" xmlns:xlink="http://www.w3.org/1999/xlink" viewBox="0 0 487 1433"><defs><style>.cls-1{fill:url(#linear-gradient);}.cls-2,.cls-3{fill:#fff;}.cls-3{opacity:0.2;}.cls-4{fill:url(#linear-gradient-2);}.cls-5{fill:url(#linear-gradient-3);}.cls-6{fill:url(#linear-gradient-4);}.cls-7{fill:url(#linear-gradient-5);}.cls-8{fill:url(#linear-gradient-6);}.cls-9{fill:url(#linear-gradient-7);}.cls-10{fill:url(#linear-gradient-8);}.cls-11{fill:url(#linear-gradient-9);}.cls-12{fill:url(#linear-gradient-11);}.cls-13{fill:url(#linear-gradient-12);}</style><linearGradient id="linear-gradient" x1="271" y1="971.86" x2="271" y2="25.57" gradientUnits="userSpaceOnUse"><stop offset="0" stop-color="#b4ef9d"/><stop offset="1" stop-color="#071750"/></linearGradient><linearGradient id="linear-gradient-2" x1="247.86" y1="830.01" x2="249.58" y2="1097.43" gradientUnits="userSpaceOnUse"><stop offset="0" stop-color="#21c995"/><stop offset="1" stop-color="#bdff92"/></linearGradient><linearGradient id="linear-gradient-3" x1="251.63" y1="1299.7" x2="244.77" y2="924.27" gradientUnits="userSpaceOnUse"><stop offset="0" stop-color="#abf6bf"/><stop offset="1" stop-color="#10ab98"/></linearGradient><linearGradient id="linear-gradient-4" x1="316" y1="1040.43" x2="316" y2="1443.29" gradientUnits="userSpaceOnUse"><stop offset="0" stop-color="#052e48"/><stop offset="1" stop-color="#089f90"/></linearGradient><linearGradient id="linear-gradient-5" x1="301.5" y1="1040.43" x2="301.5" y2="1443.29" xlink:href="#linear-gradient-4"/><linearGradient id="linear-gradient-6" x1="410.5" y1="1040.43" x2="410.5" y2="1443.29" xlink:href="#linear-gradient-4"/><linearGradient id="linear-gradient-7" x1="445.5" y1="1040.43" x2="445.5" y2="1443.29" xlink:href="#linear-gradient-4"/><linearGradient id="linear-gradient-8" x1="490" y1="1040.43" x2="490" y2="1443.29" xlink:href="#linear-gradient-4"/><linearGradient id="linear-gradient-9" x1="249.75" y1="1040.43" x2="249.75" y2="1443.29" xlink:href="#linear-gradient-4"/><linearGradient id="linear-gradient-11" x1="487.5" y1="1040.43" x2="487.5" y2="1443.29" xlink:href="#linear-gradient-4"/><linearGradient id="linear-gradient-12" x1="400.25" y1="1040.43" x2="400.25" y2="1443.29" xlink:href="#linear-gradient-4"/></defs><g id="Layer_7" data-name="Layer 7"><image width="1600" height="1202" transform="translate(-1066 -534) scale(1.95)" xlink:href="D:%5CDownloads%5C280295419_385685480187862_1307100918557468544_n.png"/></g><g id="BG"><rect class="cls-1" x="-9" y="-72" width="560" height="1568"/></g><g id="Stars"><path class="cls-2" d="M296.86,743.64a1.5,1.5,0,0,0,0-3,1.5,1.5,0,0,0,0,3Z"/><path class="cls-2" d="M437.43,759.07a1.5,1.5,0,0,0,0-3,1.5,1.5,0,0,0,0,3Z"/><path class="cls-2" d="M104.86,793.36a1.5,1.5,0,0,0,0-3,1.5,1.5,0,0,0,0,3Z"/><path class="cls-2" d="M295.14,570.5a1.5,1.5,0,0,0,0-3,1.5,1.5,0,0,0,0,3Z"/><path class="cls-2" d="M67.14,493.36a1.5,1.5,0,0,0,0-3,1.5,1.5,0,0,0,0,3Z"/><path class="cls-2" d="M447.71,471.07a1.5,1.5,0,0,0,0-3,1.5,1.5,0,0,0,0,3Z"/><path class="cls-2" d="M332.86,375.07a1.5,1.5,0,0,0,0-3,1.5,1.5,0,0,0,0,3Z"/><path class="cls-2" d="M320.86,258.5a1.5,1.5,0,0,0,0-3,1.5,1.5,0,0,0,0,3Z"/><path class="cls-2" d="M310.57,164.21a1.5,1.5,0,0,0,0-3,1.5,1.5,0,0,0,0,3Z"/><path class="cls-2" d="M188.86,47.64a1.5,1.5,0,0,0,0-3,1.5,1.5,0,0,0,0,3Z"/><path class="cls-2" d="M103.14,145.36a1.5,1.5,0,0,0,0-3,1.5,1.5,0,0,0,0,3Z"/><path class="cls-2" d="M425.43,213.93a1.5,1.5,0,0,0,0-3,1.5,1.5,0,0,0,0,3Z"/><path class="cls-2" d="M221.43,621.93a1.5,1.5,0,0,0,0-3,1.5,1.5,0,0,0,0,3Z"/><path class="cls-2" d="M34.57,685.36a1.5,1.5,0,0,0,0-3,1.5,1.5,0,0,0,0,3Z"/><path class="cls-2" d="M430.57,913.36a1.5,1.5,0,0,0,0-3,1.5,1.5,0,0,0,0,3Z"/><path class="cls-2" d="M34.57,903.07a1.5,1.5,0,0,0,0-3,1.5,1.5,0,0,0,0,3Z"/><path class="cls-2" d="M461.43,352.79a1.5,1.5,0,0,0,0-3,1.5,1.5,0,0,0,0,3Z"/><path class="cls-2" d="M399.71,45.93a1.5,1.5,0,0,0,0-3,1.5,1.5,0,0,0,0,3Z"/><path class="cls-2" d="M458,83.64a1.5,1.5,0,0,0,0-3,1.5,1.5,0,0,0,0,3Z"/><path class="cls-2" d="M22.57,44.21a1.5,1.5,0,0,0,0-3,1.5,1.5,0,0,0,0,3Z"/><path class="cls-2" d="M17.43,387.07a1.5,1.5,0,0,0,0-3,1.5,1.5,0,0,0,0,3Z"/></g><g id="Clouds"><path class="cls-3" d="M339.93,717H765.8s22,.69,6.18-8.93-39.15-29.54-116.08-17.86c0,0,6.18-73.5-71.44-35.72,0,0,17.17-46-28.16-76.93S423,561.08,380.46,673c0,0-20.61-29.54-45.34-6.18S339.93,717,339.93,717Z"/><path class="cls-3" d="M-333.9,426H250.67s30.17.94,8.49-12.26S205.41,373.2,99.81,389.23c0,0,8.49-100.89-98-49,0,0,23.57-63.17-38.66-105.6S-219.82,212-278.27,365.66c0,0-28.29-40.55-62.23-8.49S-333.9,426-333.9,426Z"/><path class="cls-3" d="M322.1,139H906.67s30.17.94,8.49-12.26S861.41,86.2,755.81,102.23c0,0,8.49-100.89-98-49,0,0,23.57-63.17-38.66-105.6S436.18-75,377.73,78.66c0,0-28.29-40.55-62.23-8.49S322.1,139,322.1,139Z"/></g><g id="_3" data-name="3"><polygon class="cls-4" points="-7 922 38 922 38 977 60 977 60 879 103 879 103 912 109 912 109 948 120 948 120 894 154 894 154 905 163 905 163 882 205 882 205 922 221 922 221 849 269 849 269 868 327 868 327 916 343 916 343 894 365 894 365 849 409 849 409 910 416 910 416 943 432 943 432 889 457 889 457 906 469 906 469 878 509 878 499 1183 499 1441 -9 1449 -9 964 -7 922"/></g><g id="_2" data-name="2"><polygon class="cls-5" points="-9 1046 33 1046 33 1025 64 1025 64 1103 78 1103 78 960 139 960 139 928 186 928 186 1047 202 1047 202 980 244 980 244 1021 256 1021 256 998 285 998 285 1090 296 1090 296 1028 309 1028 309 925 347 925 347 1048 362 1048 362 1001 388 1001 388 1048 408 1048 408 959 464 959 464 925 509 925 509 1496 -9 1496 -9 1052 -9 1046"/></g><g id="_1" data-name="1"><polygon class="cls-6" points="382 1184 382 1159 277 1159 250 1193 369 1193 382 1184"/><polygon class="cls-7" points="362 1210 362 1203 369 1203 369 1195 234 1195 234 1203 244 1203 244 1210 261 1210 261 1203 273 1203 273 1210 312 1210 312 1203 322 1203 322 1210 362 1210"/><rect class="cls-8" x="400" y="1159" width="21" height="10"/><rect class="cls-9" x="425" y="1159" width="41" height="10"/><rect class="cls-10" x="484" y="1159" width="12" height="19"/><path class="cls-11" d="M496,1265H484v11h-3V1159H469v117h-3V1174H425v102h-4V1174H400v102h-3V1159H385v117h-3v-87l-9,6v81H362v-62H322v62H312v-62H273v62H261v-62H244v62h-9v4.5H209V1276h-9.5V1170H245v-15H210v-5a42.44,42.44,0,0,1-10.5,3.15V1134h45.14A11.35,11.35,0,0,0,256,1122.64V1112H17v10.64A11.35,11.35,0,0,0,28.36,1134H77.5v19.45A35.69,35.69,0,0,1,66,1150v5H33v15H77.5v106H68v4.5H.5v169h487V1288H499v-12h-3ZM181.5,1153.29A35,35,0,0,1,171,1150v5H154v-21h27.5ZM125,1134v21H105v-5a42.44,42.44,0,0,1-10.5,3.15V1134Zm-30.5,36h87v106H173v4.5H105V1276H94.5Z"/><rect class="cls-10" x="484" y="1254" width="12" height="9"/><path class="cls-12" d="M484,1252h7v-39s-7,0-7,8Z"/><path class="cls-13" d="M361,1052v12c0,30-49.5,72.5-49.5,72.5h-10V1152l4.19,3.5H310v-8a1.5,1.5,0,0,1,3,0v8h5v-8a1.5,1.5,0,0,1,3,0v8h5v-8a1.5,1.5,0,0,1,3,0v8h5v-8a1.5,1.5,0,0,1,3,0v8h5v-8a1.5,1.5,0,0,1,3,0v8h5v-8a1.5,1.5,0,0,1,3,0v8h5v-8a1.5,1.5,0,0,1,3,0v8h5v-8a1.5,1.5,0,0,1,3,0v8h5v-8a1.5,1.5,0,0,1,3,0v8h5v-8a1.5,1.5,0,0,1,3,0v8h5v-8a1.5,1.5,0,0,1,3,0v8h5v-8a1.5,1.5,0,0,1,3,0v8h5v-8a1.5,1.5,0,0,1,3,0v8h5v-8a1.5,1.5,0,0,1,3,0v8h5v-8a1.5,1.5,0,0,1,3,0v8h5v-8a1.5,1.5,0,0,1,3,0v8h5v-8a1.5,1.5,0,0,1,3,0v8h5v-8a1.5,1.5,0,0,1,3,0v8h5v-8a1.5,1.5,0,0,1,3,0v8h5v-8a1.5,1.5,0,0,1,3,0v8h5v-8a1.5,1.5,0,0,1,3,0v8h5v-8a1.5,1.5,0,0,1,3,0v8h5v-8a1.5,1.5,0,0,1,3,0v8h1a1.5,1.5,0,0,1,1.5,1.5.13.13,0,0,1,0,.06L499,1157V1052Z"/></g><g id="Layer_12" data-name="Layer 12"><path class="cls-2" d="M43.89,869.61V815.88h73.93c52,0,67.16,42,67.16,94.13-.1,51.78-15.07,94.24-67.16,94H101V950.31h13.43C137.09,950.62,141,932,141.3,910c-.31-22-4.21-40.71-26.87-40.4Z"/><path class="cls-2" d="M44,750.67V686.79L181.8,612.85v60.5l-23.58,10.87v69L181.8,764.1v60.5Zm80.59-13V699.81l-40.7,18.86Z"/><path class="cls-2" d="M44,476c-.31-28.4,23.58-52.5,52.09-52.08,28.4-.42,52.5,23.68,52.09,52.08V555H181.8v53.73H44Zm63.78,13.44a11.73,11.73,0,0,0-11.69-11.69A11.88,11.88,0,0,0,84.29,489.4V555h23.48Z"/><path class="cls-2" d="M44,373.53V309.65L181.8,235.71v60.5l-23.58,10.87v69L181.8,387v60.5Zm80.59-13V322.67l-40.7,18.87Z"/><path class="cls-2" d="M43.78,97.19V43.35H181.6v60.5l-84.19,74H181.6v53.73H43.78V157.68l73-60.49Z"/></g></svg>