<svg xmlns="http://www.w3.org/2000/svg" xmlns:xlink="http://www.w3.org/1999/xlink" viewBox="0 0 487 1433"><defs><style>.cls-1{fill:url(#linear-gradient);}.cls-2,.cls-3{fill:#fff;}.cls-3{opacity:0.2;}.cls-4{fill:url(#linear-gradient-2);}.cls-5{fill:url(#linear-gradient-3);}.cls-6{fill:url(#linear-gradient-4);}</style><linearGradient id="linear-gradient" x1="244.44" y1="1.32" x2="258.16" y2="1153.32" gradientUnits="userSpaceOnUse"><stop offset="0" stop-color="#f90"/><stop offset="1" stop-color="#ffd66a"/></linearGradient><linearGradient id="linear-gradient-2" x1="213.5" y1="878.29" x2="213.5" y2="1346.29" xlink:href="#linear-gradient"/><linearGradient id="linear-gradient-3" x1="252" y1="999.14" x2="252" y2="1339.86" xlink:href="#linear-gradient"/><linearGradient id="linear-gradient-4" x1="279.51" y1="1106.79" x2="278.23" y2="1419.22" xlink:href="#linear-gradient"/></defs><g id="Layer_7" data-name="Layer 7"><image width="1600" height="1202" transform="translate(18 -1548) scale(1.95)" xlink:href="D:%5CDownloads%5C280295419_385685480187862_1307100918557468544_n.png"/><image width="612" height="612" transform="translate(-1120 -860) scale(4.12)" xlink:href="D:%5CDownloads%5Cistockphoto-957165070-612x612.jpg"/><image width="612" height="229" transform="matrix(-4.73, 0, 0, 4.73, 2196, 461)" xlink:href="D:%5CDownloads%5Cistockphoto-962621770-612x612.jpg"/></g><g id="BG"><rect class="cls-1" x="-34" y="-31" width="574" height="1502"/></g><g id="Stars"><path class="cls-2" d="M356.86,670.21a1.5,1.5,0,0,0,0-3,1.5,1.5,0,0,0,0,3Z"/><path class="cls-2" d="M92.86,886.21a1.5,1.5,0,0,0,0-3,1.5,1.5,0,0,0,0,3Z"/><path class="cls-2" d="M226.57,965.07a1.5,1.5,0,0,0,0-3,1.5,1.5,0,0,0,0,3Z"/><path class="cls-2" d="M274.57,899.93a1.5,1.5,0,0,0,0-3,1.5,1.5,0,0,0,0,3Z"/><path class="cls-2" d="M82.57,978.79a1.5,1.5,0,0,0,0-3,1.5,1.5,0,0,0,0,3Z"/><path class="cls-2" d="M432.29,886.21a1.5,1.5,0,0,0,0-3,1.5,1.5,0,0,0,0,3Z"/><path class="cls-2" d="M113.43,728.5a1.5,1.5,0,0,0,0-3,1.5,1.5,0,0,0,0,3Z"/><path class="cls-2" d="M267.71,735.36a1.5,1.5,0,0,0,0-3,1.5,1.5,0,0,0,0,3Z"/><path class="cls-2" d="M82.57,515.93a1.5,1.5,0,0,0,0-3,1.5,1.5,0,0,0,0,3Z"/><path class="cls-2" d="M339.71,512.5a1.5,1.5,0,0,0,0-3,1.5,1.5,0,0,0,0,3Z"/><path class="cls-2" d="M408.29,570.79a1.5,1.5,0,0,0,0-3,1.5,1.5,0,0,0,0,3Z"/><path class="cls-2" d="M216.29,529.64a1.5,1.5,0,0,0,0-3,1.5,1.5,0,0,0,0,3Z"/><path class="cls-2" d="M459.71,378.79a1.5,1.5,0,0,0,0-3,1.5,1.5,0,0,0,0,3Z"/><path class="cls-2" d="M65.43,371.93a1.5,1.5,0,0,0,0-3,1.5,1.5,0,0,0,0,3Z"/><path class="cls-2" d="M260.86,392.5a1.5,1.5,0,0,0,0-3,1.5,1.5,0,0,0,0,3Z"/><path class="cls-2" d="M332.86,303.36a1.5,1.5,0,0,0,0-3,1.5,1.5,0,0,0,0,3Z"/><path class="cls-2" d="M415.14,368.5a1.5,1.5,0,0,0,0-3,1.5,1.5,0,0,0,0,3Z"/><path class="cls-2" d="M202.57,248.5a1.5,1.5,0,0,0,0-3,1.5,1.5,0,0,0,0,3Z"/><path class="cls-2" d="M38,214.21a1.5,1.5,0,0,0,0-3,1.5,1.5,0,0,0,0,3Z"/><path class="cls-2" d="M123.71,107.93a1.5,1.5,0,0,0,0-3,1.5,1.5,0,0,0,0,3Z"/><path class="cls-2" d="M271.14,77.07a1.5,1.5,0,0,0,0-3,1.5,1.5,0,0,0,0,3Z"/><path class="cls-2" d="M449.43,179.93a1.5,1.5,0,0,0,0-3,1.5,1.5,0,0,0,0,3Z"/><path class="cls-2" d="M230,162.79a1.5,1.5,0,0,0,0-3,1.5,1.5,0,0,0,0,3Z"/><path class="cls-2" d="M99.71,53.07a1.5,1.5,0,0,0,0-3,1.5,1.5,0,0,0,0,3Z"/><path class="cls-2" d="M408.29,70.21a1.5,1.5,0,0,0,0-3,1.5,1.5,0,0,0,0,3Z"/></g><g id="Clouds"><path class="cls-3" d="M225.24,880H565.93s17.59.55,5-7.14S539.56,849.23,478,858.57c0,0,4.95-58.8-57.15-28.57,0,0,13.74-36.82-22.52-61.55s-106.61-13.19-140.68,76.38c0,0-16.48-23.63-36.26-4.94S225.24,880,225.24,880Z"/><path class="cls-3" d="M227.33,199H501.41s14.15.45,4-5.74-25.2-19-74.71-11.5c0,0,4-47.3-46-23,0,0,11.05-29.61-18.13-49.51S280.82,98.64,253.41,170.7c0,0-13.26-19-29.18-4S227.33,199,227.33,199Z"/><path class="cls-3" d="M-139.55,600H295.34s22.45.7,6.31-9.12-40-30.16-118.54-18.24c0,0,6.31-75.05-73-36.47,0,0,17.54-47-28.76-78.56s-136.08-16.84-179.57,97.5c0,0-21-30.16-46.29-6.32S-139.55,600-139.55,600Z"/></g><g id="_3" data-name="3"><path class="cls-4" d="M-19,1132a139.62,139.62,0,0,0,37-29c17-19,40-23,49-22s33-7,45-19,25-10,28-10,23-14,30-16,16,4,27,0,27-14,29-16l8-8c6-6,11-5,26-17s28-23,38-29,20-14,27-15,19-3,19-3,29,7,51,0a402.08,402.08,0,0,0,46-18c9-4,23-13,27-13s11-9,14-19,15-12,21-12,34,14,34,14l7,57,61,231-56,124-727-11Z"/></g><g id="_2" data-name="2"><path class="cls-5" d="M-2,1219H10v-21H38v-37H49v10h7v-18h9v-33H89v-16h15v-16h36v26h19v35h6v-23s1-8,13-16v-17h39v22h24v-10h8v-60h40v19h5v42h9v-61h10v-20h20v13h11v-16h9s0-15,11-22h20a51.9,51.9,0,0,1,9,21v18h16v18H397v10h12v37h55v-18s10-14,21-19v33h33v277H-14Z"/></g><g id="_1" data-name="1"><path class="cls-2" d="M161.53,949.31H208.6V1003H70.78V949.31h47.07V925.83L70.78,875.28V804.73l68.91,71.47,68.91-71.47v70.55l-47.07,50.55Z"/><path class="cls-2" d="M134.67,629.9h10c52.09-.2,67.17,42.25,67.27,94-.1,51.88-15.18,94.34-67.27,94.13h-10c-52.2.21-67.17-42.25-67.27-94.13S82.58,629.9,134.67,629.9ZM138,683.63c-22.46-.31-26.56,18.36-26.87,40.3.31,22,4.41,40.71,26.87,40.4h3.38c22.56.31,26.66-18.36,27-40.4-.31-21.94-4.41-40.61-27-40.3Z"/><path class="cls-2" d="M70.89,481.22c-.31-28.4,23.58-52.5,52.09-52.09a50.18,50.18,0,0,1,28.19,8.31A51.62,51.62,0,0,1,170,459.17l38.66-30v57.22l-33.63,25.94v48H208.7V614H70.89Zm40.29,79.06h23.49V494.75A11.74,11.74,0,0,0,123,483a11.73,11.73,0,0,0-11.8,11.79Z"/><path class="cls-2" d="M71,412.52V251.22h35.27V358.79H123.9V251.22h31.89V358.79h17.63V251.22H208.8v161.3Z"/><path class="cls-2" d="M71,173.19V109.31L208.8,35.38v60.5l-23.58,10.87v69l23.58,10.87v60.49Zm80.59-13V122.33l-40.7,18.87Z"/><path class="cls-6" d="M571,1202v-18H486v-27h13v-67H299s-1,17-9,25l-78,2s24,40,53,40h14v27H250a18,18,0,0,0,18,18h11v59H173v-22s29-5,29-18H166v-7s35-13,36-29H166v-16H66v16H30c1,16,36,29,36,29v7H30c0,13,29,18,29,18v22H-13v202H499V1261H486v-59Zm-96-45v27H437v-27Zm-49,0v27H388v-27Zm-38,45h38v59H388Zm-11,59H339v-59h38Zm0-104v27H339v-27Zm-87,0h38v27H290Zm0,45h38v59H290Zm-184,45h20v14H106Zm369,14H437v-59h38Z"/></g></svg>