<svg id="Layer_1" data-name="Layer 1" xmlns="http://www.w3.org/2000/svg" viewBox="0 0 130 100"><defs><style>.cls-1{fill:#b7b7b7;}</style></defs><path class="cls-1" d="M130,56.5c-3,12.52-12.27,17.21-23.83,19-14.31,2.25-27.84.77-39.74-8.4A47.14,47.14,0,0,1,52.86,50.79,32.64,32.64,0,0,0,41.48,37.73C31,30.88,20.26,24.38,9.65,17.7A47.47,47.47,0,0,1,3,13.06C-.21,10.12-.77,6.87,1,3.76,2.57.9,7.09-.8,10.67.38a31.84,31.84,0,0,1,5.51,2.68C26.47,8.8,36.71,14.64,47,20.33c9.86,5.44,20.35,8.41,31.74,7.57,2.26-.17,4.53,0,7,0l.73,5a22.77,22.77,0,0,1-2.31-1c-4.93-2.92-9.83-1.21-11.83,4.06a8.52,8.52,0,0,1-1.83,2.88c-4.47,4.53-5.07,9.6-1.59,15a23.74,23.74,0,0,0,12.22,9.24,48.07,48.07,0,0,0,29.34,1.7,26.74,26.74,0,0,0,9.68-5c5.44-4.4,5.35-10.6.34-15.45-.53-.53-1.1-1-1.69-1.56l1.81-5c4.66,2.32,7.41,6.27,9.4,10.91Z"/><path class="cls-1" d="M87.4,54c.1-1.21.19-2.32.33-4.09,2.21,3.39,1.76,6.36-.68,8.24a6.17,6.17,0,0,1-8-.48,6,6,0,0,1-.38-8c2.12-2.61,4.65-2.8,7.89-.6-1.11,2.33-1.13,2.34-5.38,3.24Z"/><path class="cls-1" d="M95.11,34.86a34.14,34.14,0,0,0-3.75-2.11c-3-1.22-4.12-3.53-2.21-6.09,1.14-1.53,3.37-3.06,5.13-3.08s3.89,1.53,5.18,3,1.45,3.45-.95,4.82C97.18,32.16,96.26,33.64,95.11,34.86Z"/><path class="cls-1" d="M110.57,57.66a5.94,5.94,0,1,1-11.87.21A4.2,4.2,0,0,1,104.39,54a8.59,8.59,0,0,0,3.44.71C110.22,54.48,110.52,55.88,110.57,57.66Z"/><path class="cls-1" d="M94,38.34l-6.15,7.84a5.34,5.34,0,0,1-5.2-5,6.1,6.1,0,0,1,4.64-6.49C90.28,33.93,92.76,35.42,94,38.34Z"/><path class="cls-1" d="M81.26,44.29l-7,7.53A5.48,5.48,0,0,1,69.83,46a6.13,6.13,0,0,1,5.31-5.66A5.5,5.5,0,0,1,81.26,44.29Z"/><path class="cls-1" d="M108.49,46.84l4.88,1.36c-1.28,4.24-4.57,5.44-8.15,3.4-.2-3.3-.39-6.32-.6-9.7,3.15-2.51,6.56-1.69,9.2,3.33l-4.95,1.13Z"/><path class="cls-1" d="M60.93,78.42c3.84-.07,5.75,1.35,6.58,3.94a5.62,5.62,0,0,1-2,6.64,5.42,5.42,0,0,1-6.63.34c-.88-.57-2.12-2.18-1.9-2.56a13.64,13.64,0,0,1,3.57-4c.45-.34,1.85.4,2.71.85.51.26.82.9,1.71,1.07Z"/><path class="cls-1" d="M92.55,50.92c1.52-2.82,2.79-5.65,6.89-3.4-.68-2.66-5.67-2.11-3.58-6.23a5.72,5.72,0,0,1,6.52,3.17A5.94,5.94,0,0,1,100.55,52C98,53.82,95.55,53.53,92.55,50.92Z"/><path class="cls-1" d="M92.91,88.71c4-1.1,6.54-.18,8,2.72a5.93,5.93,0,0,1-1.7,7.29c-2.44,1.91-5,1.71-8-.76l5.29-4.15Z"/><path class="cls-1" d="M112,55.07l5-8.26a5.4,5.4,0,0,1,4.56,5.77,6.23,6.23,0,0,1-5.62,5.71C112.85,58.56,112.12,56.62,112,55.07Z"/><path class="cls-1" d="M103.93,93.65a9.49,9.49,0,0,0-7.38-8.05c1.4-2.81,3.54-3.95,6.36-3.45a5.58,5.58,0,0,1,4.93,5.25C108.13,90.23,106.85,92.3,103.93,93.65Z"/><path class="cls-1" d="M92.43,54.21l5,1.51a5.64,5.64,0,0,1-2.45,7.17c-2.52,1.62-5.25,1-7.51-1.37Z"/><path class="cls-1" d="M109.27,32.31c3.16-1.51,5.9-.93,7.67,1.56,1.91,2.68,1.4,5.55-1.4,8.18C111,40.34,111.42,35.54,109.27,32.31Z"/><path class="cls-1" d="M80.17,38.89l-5.24-1.38c.2-4.46,3.87-6.07,8.07-3.51C82.05,35.63,81.1,37.27,80.17,38.89Z"/><path class="cls-1" d="M109.66,37.8l-6.43,1.42c.08-1.5-.19-3.06.36-4.23.33-.7,2.37-1.41,2.9-1C107.72,34.8,108.5,36.3,109.66,37.8Z"/><path class="cls-1" d="M102.46,40.26l-5-1.69c-.08-3.76,1-5.2,4.95-6a23.29,23.29,0,0,1-.85,2.39,16.65,16.65,0,0,1-1.15,1.84l2.5,2.93Z"/><path class="cls-1" d="M90.81,89l3.82,4.51-4.46,2.62-.84-.48Z"/><path class="cls-1" d="M55.42,84.36c1.07-1.88,2.13-3.77,3.41-6,1.2,2.14,1.2,2.14-2.44,6.37Z"/><path class="cls-1" d="M91,48.78l1-5.5,1.58.25-.8,5.63Z"/></svg>