<svg id="Layer_1" data-name="Layer 1" xmlns="http://www.w3.org/2000/svg" viewBox="0 0 100 100"><defs><style>.cls-1{fill:#b7b7b7;}</style></defs><path class="cls-1" d="M70.35.31C61.72,1.65,54.9,6.24,49,12.4c-6.34,6.58-9,14.76-10.76,23.48C36.52,44.36,34,52.47,26.62,58.07c-1.08.81-2.12,3-1.75,4.12,1.15,3.29-1,4.71-2.76,6.48a68.82,68.82,0,0,1-5.12,5,5.88,5.88,0,0,1-3.26.76c-3,.13-6.26-.61-9,.27-5.56,1.77-6.36,8-1.59,11.38,2.17,1.54,5,2.24,8,3.56,0,.2.09.88.21,1.56.9,5.32,4.68,9.13,8.61,8.68s6.65-4.9,6.22-10.44c0-.1,0-.21,0-.29-2.27-4.43.39-7,3.42-9.62,1.43-1.21,2.63-2.71,4-4a2.61,2.61,0,0,1,2-.66c3.28,1,5.59-.36,7.55-2.79a22.77,22.77,0,0,1,12-7.93C60.49,62.71,66,61.61,71.27,60c14.45-4.33,24.15-13.76,27.92-28.34C103.76,14,88.33-2.48,70.35.31ZM95.66,18.23a38.5,38.5,0,0,1,1.41,6.18,38.5,38.5,0,0,0-1.41-6.18A24.45,24.45,0,0,0,92,11.53,24.45,24.45,0,0,1,95.66,18.23ZM84.12,12.58c-.49,2.7-3.28,4.61-6.51,4.33-3-.21-5.93-.51-8.91-.58a25.67,25.67,0,0,0-13.76,3.14,5.77,5.77,0,0,1-2.13.27A5.87,5.87,0,0,1,53,17.88C57.19,9.7,69.09,4.17,77.88,6.3a15.1,15.1,0,0,1,2,.61C83.06,8.18,84.55,10.19,84.12,12.58ZM61.2,6.65A25.85,25.85,0,0,1,78.82,3.47,25.92,25.92,0,0,0,61.2,6.65a37.38,37.38,0,0,0-17.43,20A37.38,37.38,0,0,1,61.2,6.65ZM27.76,61.58A2.66,2.66,0,0,0,27.85,63,2.66,2.66,0,0,1,27.76,61.58ZM20.64,83.49c2.19,3.46,3.49,6.62,2.05,10-.55,1.3-1.9,2.95-3.07,3.1a4.56,4.56,0,0,1-3.71-2.2c-1.11-2.63-1.51-5.57-2.27-8.67a12.56,12.56,0,0,1-2.91,0c-1.73-.32-3.66-.57-5-1.53-1.2-.84-2.44-2.66-2.35-4,.06-1.08,1.86-2.47,3.18-3,3.38-1.3,6.57-.17,9.66,2L27,68.09,31.87,73ZM40.8,70.11a7.46,7.46,0,0,1-1.93,1.79,7.64,7.64,0,0,0,1.93-1.79A27.62,27.62,0,0,1,55.14,61c4.08-1.1,8.18-2.09,12.29-3.08-4.11,1-8.21,2-12.29,3.08A27.62,27.62,0,0,0,40.8,70.11Z"/></svg>