<svg id="Layer_1" data-name="Layer 1" xmlns="http://www.w3.org/2000/svg" viewBox="0 0 110 100"><defs><style>.cls-1{fill:#b7b7b7;}</style></defs><path class="cls-1" d="M104.35,67.64c-9.25,11.75-21.91,17-36.28,18.42a54.69,54.69,0,0,1-24.48-3.39c-23-8.48-39.13-30.77-34.95-55.1,1.49-8.66,5-16.37,11.43-22.61L15.29,0C10.69,6,7.12,11.7,5,18.22c-.18.39-.35.78-.52,1.18a66.57,66.57,0,0,0-2.34,41c2.62,9.92,7.48,18.54,15.48,25.07,13.81,11.28,29.59,16.45,47.41,14A61.33,61.33,0,0,0,98.34,83.87h0l1.9-1.77L101.4,81l1.33-1.33,7.7-8.57ZM20.42,72.23h0l-.5-.22ZM20.67,79c.18-.47.35-.94.52-1.41-.17.47-.34.94-.52,1.41l-1.2.61Z"/><path class="cls-1" d="M40.17,77.76a158.38,158.38,0,0,0,16.94,4.91c4.93,1.12,8.77-2.17,8.72-7.32-1.21-8.75-2.39-18-3.83-27.14A4.59,4.59,0,0,0,59.42,45c-1.11-.27-3,.61-3.86,1.58-6.19,6.81-12.3,13.7-18.24,20.72A6.35,6.35,0,0,0,40.17,77.76Z"/><path class="cls-1" d="M19.53,41.15c-5.28.51-7.69,5.7-5,10.28,2.39,4,4.87,8,7.31,12.07,1.58,2.59,3.83,4,8.21,4.16,1-.68,3.32-1.62,4.84-3.26C40.74,58.06,46.39,51.55,52,45c.93-1.09,1.94-3.31,1.44-4.11a5.37,5.37,0,0,0-4.22-2Q34.33,39.75,19.53,41.15Z"/><path class="cls-1" d="M16,16.56q-2.06,5.79-4,11.61c-1.58,4.81,1.16,8.95,6.19,9.37,1.19.1,2.4,0,3.22,0,3.67-.26,7-.47,10.25-.71,5.58-.4,11.18-.71,16.74-1.32a5.84,5.84,0,0,0,3.9-2.16c.4-.63-.7-2.86-1.7-3.63C43,23.86,35.43,18,27.57,12.46,23.06,9.3,17.82,11.4,16,16.56Z"/><path class="cls-1" d="M80.88,80.19C85,78.13,89,76,93.07,73.77,97.81,71.19,98.66,66,94.5,62.7c-7.58-6.05-15.42-11.77-23.27-17.46a4.85,4.85,0,0,0-4.07-.5c-.92.4-1.21,2.22-1.51,2.87,1.3,9.35,2.51,18,3.71,26.56C70.2,80.13,75.44,82.92,80.88,80.19Z"/></svg>