<svg id="Layer_1" data-name="Layer 1" xmlns="http://www.w3.org/2000/svg" viewBox="0 0 43 100"><defs><style>.cls-1{fill:#b7b7b7;}</style></defs><path class="cls-1" d="M40.48,88.12a12.23,12.23,0,0,1,1.35.06l0-15.36c-.08-1.43-.16-2.86-.25-4.29a5.22,5.22,0,0,0-.19-1.14,5.36,5.36,0,0,0-3.06-2.94,3.36,3.36,0,0,1,.79-.54c2.32-.8,3.19-2.5,3.19-4.84,0-10.3,0-20.6,0-30.9a11.23,11.23,0,0,0-.4-2.7c-1-4-3.62-6.37-7.54-7.43a11.19,11.19,0,0,1-2.95-1.13c-2.68-1.63-3.66-4.21-3.79-7.21.91-.25,1.73-.65,1.76-1.72q.07-3.12,0-6.22A1.7,1.7,0,0,0,27.59,0C25.3,0,23,0,20.73,0c-2.47,0-4.94,0-7.41,0-1.46,0-2.09.62-2.12,2.08,0,1.29,0,2.58,0,3.87-.08,1.7-.1,3.33,1.93,4,.05,0,.08.11.12.17-.15.51-.29,1-.45,1.54-.68,2.16-1.49,4.27-3.72,5.31a18.79,18.79,0,0,1-3.45,1.12A7.33,7.33,0,0,0,0,24.79C0,35.64,0,46.48,0,57.33a6.21,6.21,0,0,0,3.82,5.91,5.18,5.18,0,0,1,1,.73c-.11.15-.14.23-.19.26s-.26.12-.39.18C1.71,65.49.33,67.31.47,70.15c.05.89,0,1.79,0,2.69H8.89a6,6,0,0,1,2.16-3.51,6,6,0,0,0-2.16,3.51H.5q0,7.65,0,15.31c0,2,0,4.09,0,6.14A5.32,5.32,0,0,0,6.09,100c.93,0,1.86,0,2.8,0,9.3,0,18.6.08,27.9,0a5.42,5.42,0,0,0,5-5.21c.1-2.19,0-4.38,0-6.57A12.23,12.23,0,0,0,40.48,88.12ZM13.2,58.41a.71.71,0,0,1,.08.15.71.71,0,0,0-.08-.15v0ZM37.58,71.15l0,0,0,0Zm.91.21s0,.07.07.1S38.52,71.38,38.49,71.36Zm.19-.48a1,1,0,0,0-.3,0,1,1,0,0,1,.3,0,1,1,0,0,1,.48.27A1,1,0,0,0,38.68,70.88ZM3.91,54.4C4,46.14,4,37.89,4,29.63c0-2.82,1.51-4.5,4.29-4.69h0l1.89.07h0a8.87,8.87,0,0,1,.44,1.85q0,14.74,0,29.5c0,.72,0,1.44,0,2.15A1.16,1.16,0,0,1,9.19,59.7l-2.67-.24C4.58,58.33,3.89,56.67,3.91,54.4Zm5.18,5.52-.39,0,.39,0a6.71,6.71,0,0,0,1.24,1.94A6.71,6.71,0,0,1,9.09,59.92ZM36.68,73.05c-8.86,0-17.72,0-26.58,0,8.86,0,17.72,0,26.58,0v-.22C36.67,72.91,36.68,73,36.68,73.05ZM8.89,88.36h0q12.84,0,25.69,0Q21.73,88.38,8.89,88.36Zm27.37-.43h0c0,.07,0,.14,0,.21S36.26,88,36.26,87.93Zm2.5,6.1c.34-.09.61-.31.54-.9.06-.92.17-1.83.18-2.75,0,.92-.12,1.83-.18,2.75C39.37,93.72,39.1,93.94,38.76,94Zm1-5.71a1.08,1.08,0,0,1,.64-.2A1.08,1.08,0,0,0,39.79,88.32Z"/></svg>