<svg id="Layer_1" data-name="Layer 1" xmlns="http://www.w3.org/2000/svg" viewBox="0 0 51 100"><defs><style>.cls-1{fill:#b7b7b7;}</style></defs><path class="cls-1" d="M35.84,99.66c-.69.12-1.3.2-1.9.32-.4.08-.54-.08-.66-.45-1.23-3.85-2.46-7.71-3.72-11.55a1.7,1.7,0,0,0-.49-.76C23.91,83.09,18.92,78.75,13.49,75l-2.75-1.91a4,4,0,0,1-1.8-2.47,2.51,2.51,0,0,1,2,.13,23.2,23.2,0,0,1,5.47,3.38,140.77,140.77,0,0,1,11.83,10.4l.25.21a3.25,3.25,0,0,0-1-1.91C23,78.35,18.23,74.24,13.51,70.08,9.23,66.3,5,62.44.76,58.62c-.27-.24-.49-.52-.76-.8a1.28,1.28,0,0,1,1.43-.46,9.85,9.85,0,0,1,3.92,1.85,73.8,73.8,0,0,1,10.41,8.93c3.65,3.66,7.18,7.43,10.77,11.16l.3.23c-.3-1-.6-1.78-.79-2.61a7.72,7.72,0,0,0-2-3.23q-2.16-2.52-4.16-5.18a66.18,66.18,0,0,0-9.55-10.1C8.23,56.58,6.07,54.82,4,53a11.42,11.42,0,0,1-1.87-2.29,3.37,3.37,0,0,1-.33-2.81.68.68,0,0,1,1-.52,6,6,0,0,1,1.51,1c1.13,1.08,2.19,2.23,3.27,3.36,2.29,2.38,4.66,4.7,6.86,7.18,2.45,2.76,4.74,5.65,7.1,8.49.7.84,1.38,1.7,2.17,2.48-.31-1-.61-2-.93-3-1-3.16-2.06-6.33-3.14-9.48-.66-1.91-1.41-3.79-2.14-5.68a2,2,0,0,0-.37-.58C13.76,47.43,10.38,43.71,7,40,5.35,38.31,3.6,36.71,2,35a15.72,15.72,0,0,1-1.5-2.43,2.74,2.74,0,0,1,2.4.31,25.49,25.49,0,0,1,3.51,2.66A58.15,58.15,0,0,1,14,45.06c.72,1.06,1.42,2.14,2.24,3.16-.17-.43-.31-.87-.49-1.29a23.44,23.44,0,0,1-1.29-5.07c-.51-2.63-1-5.26-1.55-7.88-.28-1.32-.74-2.6-1-3.91a7.28,7.28,0,0,1-.16-2.13,1.6,1.6,0,0,1,.61-1.19,1.64,1.64,0,0,1,1.3.28,6.26,6.26,0,0,1,2,2.63,31.57,31.57,0,0,1,2,6.23c.89,3.43,1.93,6.82,2.73,10.26a35.6,35.6,0,0,1,.49,5c.12,1.4.21,2.8.42,4.23.23-.72.47-1.44.69-2.17.81-2.66,1.66-5.31,2.4-8,.37-1.34.54-2.73.79-4.1a.68.68,0,0,0-.06-.42c-1.64-4-3.18-8-5-12a33.62,33.62,0,0,0-3.29-5.08C15,20.89,13,18.21,11.05,15.5a2.39,2.39,0,0,1-.4-.89,4.17,4.17,0,0,1,1,.12,8.47,8.47,0,0,1,3.18,2.34,32.49,32.49,0,0,1,6.71,11.22c1.31,3.4,2.54,6.84,3.8,10.26,0,.09.08.18.14.33a10.2,10.2,0,0,0-.22-7.16c-2.12-4.89-4.62-9.57-7.21-14.22a4.26,4.26,0,0,0-.47-.58,1.47,1.47,0,0,1,0-1.76.69.69,0,0,1,.5-.14A2.87,2.87,0,0,1,20,16.36,21.92,21.92,0,0,1,23.29,23c1.08,3.24,2,6.52,3,9.79l.12.34h.21c0-1.47.14-2.93.1-4.4a70.37,70.37,0,0,0-1.22-12.2A23,23,0,0,0,22,8.31a37.27,37.27,0,0,1-2.59-5.4,3.1,3.1,0,0,1-.19-1.36A4.49,4.49,0,0,1,19.6.44a28.65,28.65,0,0,1,8.52,17.17c.22-2.32.45-4.65.67-7,.21-2.12.41-4.24.63-6.36a2,2,0,0,1,1.21-1.53c.63-.32,1.51.44,1.57,1.37A28.28,28.28,0,0,1,32.28,7c-.11,2.74-.17,5.49-.45,8.22S31,20.49,30.62,23L32,20.71A119.45,119.45,0,0,1,40.49,8.2a28.4,28.4,0,0,1,5.63-5.8,10.85,10.85,0,0,1,2.36-1.18c.66-.26,1,0,1,.75a2.59,2.59,0,0,1-.63,1.91c-3.19,3.93-6.34,7.89-9.51,11.85L31.27,25.79a.53.53,0,0,0-.13.33c.89-.48,1.77-1,2.66-1.45a35.09,35.09,0,0,1,9.09-3.59,6.59,6.59,0,0,1,4.7.39,4,4,0,0,1,.63.55c-.22.2-.41.48-.67.58a12.75,12.75,0,0,1-1.83.52A51.67,51.67,0,0,0,36,26a18,18,0,0,0-6.53,4,5.25,5.25,0,0,0-1.54,3.63c0,1.05-.26,2.09-.41,3.26.79-.88,1.47-1.7,2.2-2.46a21.4,21.4,0,0,1,7.5-5.48,8.31,8.31,0,0,1,6.29-.17,1,1,0,0,1,.78,1c0,.52-.39.74-.81.85a4.87,4.87,0,0,1-1.55.24c-4.65-.35-8.48,1.46-11.85,4.46a31,31,0,0,0-2.44,2.56,1.88,1.88,0,0,0-.42.89c-.43,2.83-.83,5.67-1.25,8.57a33.76,33.76,0,0,1,3-2.06,4.77,4.77,0,0,0,2.33-3.08C32,40.11,32.84,38,33.72,36a5.24,5.24,0,0,1,3.1-2.64c.33-.13,1-.08,1.13.13a1.73,1.73,0,0,1,.28,1.38C37.47,36.94,36.61,39,35.79,41c0,.13-.09.28-.17.5A22.93,22.93,0,0,1,38,40.78c1.17-.25,2.37-.38,3.55-.55a.92.92,0,0,1,1.12.82l-3.51,2-5,2.74a1,1,0,0,0-.42.5C32.38,50,31,53.67,29.62,57.38s-2.67,7.19-4,10.78a1.88,1.88,0,0,0,0,1.62c.37.75.65,1.55,1.1,2.33.11-.7.22-1.4.32-2.11a40.6,40.6,0,0,1,2.85-10.66c1.05-2.36,2.34-4.57,4.63-6a17.3,17.3,0,0,1,5.8-2.08,8.56,8.56,0,0,1,4.63.14,10.69,10.69,0,0,1,2.22,1.27c.22.14.33.45.56.78-1.26.07-2.4.08-3.52.23-2.19.29-4.38.63-6.55,1a10.49,10.49,0,0,0-2,.73A3.72,3.72,0,0,0,34,57.33c-.88,1.44-1.67,2.94-2.61,4.34a8.3,8.3,0,0,0-1,3.27c-.65,3.61-1.32,7.22-1.95,10.83A2.57,2.57,0,0,0,28.6,77c.22.66.52,1.28.85,2,.31-.95.58-1.75.83-2.56a61,61,0,0,1,5.26-12.44,21.72,21.72,0,0,1,4.1-5.68,18.18,18.18,0,0,1,10.12-4.94,14.83,14.83,0,0,1,1.51,0,18.92,18.92,0,0,1-3.91,3.84c-1.74,1.07-3.61,2-4.89,3.66-1.07,1.38-1.94,2.91-2.9,4.37C38.73,66.59,38,67.93,37,69.16a41,41,0,0,0-3.38,6.21c-1,1.94-1.94,3.89-2.88,5.85a1,1,0,0,0-.11.7c.48,1.32,1,2.63,1.52,3.92.49-1.12,1-2.3,1.51-3.47a43,43,0,0,1,6-10,16.69,16.69,0,0,1,5.86-4.82l.47-.2a1.88,1.88,0,0,1,.31,0,33.32,33.32,0,0,1-2.14,2.65,47.4,47.4,0,0,0-7,9.47,63.63,63.63,0,0,0-2.64,5.89c-.44,1-.9,2-1.29,3a1.83,1.83,0,0,0-.09,1.08c.84,3.2,1.72,6.39,2.6,9.58C35.74,99.28,35.78,99.44,35.84,99.66Zm-6.58-51.2c-1.26.69-2.46,1.34-3.65,2a.57.57,0,0,0-.25.39,14.74,14.74,0,0,1-2,5.41,7,7,0,0,0-.93,3.24A10.69,10.69,0,0,0,22.39,62c.48,1.87,1.16,3.69,1.79,5.63Z"/></svg>