<svg id="Layer_1" data-name="Layer 1" xmlns="http://www.w3.org/2000/svg" viewBox="0 0 59 100"><defs><style>.cls-1{fill:#b7b7b7;}</style></defs><path class="cls-1" d="M9.2,25.07H48.9q1.82,11.22,3.59,22.36C54.26,58.55,56,69.67,57.81,80.78,59.68,92.17,53.2,99.93,41.66,100c-8.74,0-17.47.08-26.2,0C5.62,99.84-1.21,92.54.18,82.86,2.92,63.66,6.14,44.52,9.2,25.07ZM6.88,51.4c-1.25,8-2.49,15.88-3.75,23.93H55L51.24,51.4Zm5.59-22.7c-.61,3.69-1.26,7.18-1.69,10.7a3.41,3.41,0,0,0,1.21,2c4.27-1.77,8.5-.11,12.74-.07,5,0,10-.51,15.06-.79a1.1,1.1,0,0,1,.65.21c2.6,2.07,4.74.61,7.08-.82-.62-3.78-1.23-7.47-1.84-11.2Z"/><path class="cls-1" d="M9.35,19.53C9.83,8,18.5-.21,29.54,0A19.43,19.43,0,0,1,48.69,19.53Z"/><path class="cls-1" d="M29.68,70.32c-.9-.74-1.78-1.52-2.71-2.21-.75-.55-1.57-1.38-2.35-1.37s-1.56.87-2.27,1.44-1.6,1.44-2.39,2.16l-.88-.73c1.08-3.59,2.05-7.22,3.31-10.75a3.16,3.16,0,0,1,2.46-1.6,3.22,3.22,0,0,1,2.26,1.81c1.25,3.44,2.23,7,3.31,10.48Z"/><path class="cls-1" d="M17.25,58.72,12.08,60l-.14.92a15,15,0,0,1,3,1.78c1.09,1,2.51,2.27,2.66,3.54a4.1,4.1,0,0,1-2.27,3.28c-1.72.54-3.74.13-5.64,0a1.39,1.39,0,0,1-.35-1.12,1.73,1.73,0,0,1,1.15-.86c.78,0,1.61.41,2.35.28a3.1,3.1,0,0,0,1.77-1.22c.14-.22-.57-1-.94-1.56a1.34,1.34,0,0,0-.6-.33c-2.33-.94-4.63-2-3.6-5.17.78-2.4,3.82-3.09,7.39-1.86Z"/><path class="cls-1" d="M42.8,59.85a11.53,11.53,0,0,1-2.67-.44,1.71,1.71,0,0,1-.7-1.31,1.18,1.18,0,0,1,.83-.86c2.64-.07,5.29-.1,7.92,0,.38,0,.69,1.08,1.19,1.92l-3.44.53c-.36,3.43-.7,6.76-1.13,10.08a15.65,15.65,0,0,1-2,0Z"/><path class="cls-1" d="M35.24,67.51a27.42,27.42,0,0,1,3.64.23c.51.1.92.72,1.37,1.1-.46.37-.9,1-1.38,1.07C36.94,70,35,70,32.47,70c0-3.84,0-7.57.06-11.29,0-.51.86-1,1.32-1.5.46.5,1.3,1,1.33,1.51C35.31,61.53,35.24,64.38,35.24,67.51Z"/></svg>